<?xml version="1.0" standalone="no"?>
<!DOCTYPE svg PUBLIC "-//W3C//DTD SVG 1.1//EN" "http://www.w3.org/Graphics/SVG/1.1/DTD/svg11.dtd" >
<svg xmlns="http://www.w3.org/2000/svg">
<metadata></metadata>
<defs>
<font id="magpieregular" horiz-adv-x="1015" >
<font-face units-per-em="2048" ascent="1638" descent="-410" />
<missing-glyph horiz-adv-x="512" />
<glyph unicode="&#xfb01;" horiz-adv-x="1144" d="M63 930q0 43 35 43h140l6 84q6 82 51 172t118.5 164.5t173 123t214.5 48.5q211 0 211 -117q0 -102 -82 -102q-23 0 -46.5 13t-51 28.5t-62.5 29t-82 13.5q-147 0 -225 -84t-78 -236v-67.5t4 -69.5h416q35 0 61.5 7t46 16.5t31.5 17.5t19 8q33 0 32 -37q0 -4 -2 -16.5 t-6 -30.5l-12 -59q-4 -16 -4 -96.5v-227.5v-350q0 -59 20.5 -91t61.5 -32h43q37 0 37 -29q0 -53 -48 -53h-370q-47 0 -47 49q0 33 37 33h36q63 0 68 43q6 90 8 154.5t2 105.5v395q0 94 -45 94h-385v-634q0 -29 3 -55.5t17.5 -47t44 -35t85.5 -18.5q47 -4 47 -35 q0 -49 -47 -49h-400q-43 0 -43 49q0 41 60 41q23 0 46 12.5t27 34.5q6 35 7.5 61.5t1.5 59.5v616h-117q-57 0 -58 56z" />
<glyph unicode="&#xfb02;" horiz-adv-x="1196" d="M63 930q0 43 35 43h140l6 84q6 76 48 166t112.5 166.5t168 129t211.5 52.5q23 0 36.5 -1t22.5 -4t18 -7.5t22 -10.5q18 10 46.5 26.5t37.5 16.5q33 0 32 -35q0 -18 -12 -100t-12 -260v-999q0 -115 80 -115h59q35 0 35 -33q0 -49 -49 -49h-389q-41 0 -41 49q0 33 41 33h32 q63 0 68 43q4 80 7 217t3 332v315q0 31 -2 121t-6 244q-12 0 -25.5 12t-29 26.5t-37 27t-47.5 12.5q-59 0 -111.5 -27t-92.5 -72t-62.5 -102t-22.5 -121v-67.5t4 -69.5h170q45 0 45 -39q0 -59 -57 -60h-158v-634q0 -29 3 -55.5t17.5 -47t46 -34t91.5 -19.5q47 -4 47 -35 q0 -49 -47 -49h-406q-43 0 -43 49q0 41 58 41q29 0 43 7t26 24q4 6 7.5 21.5t4.5 36t1 41v38.5v616h-117q-57 0 -58 56z" />
<glyph unicode="&#xfb03;" horiz-adv-x="1742" d="M63 49q0 41 58 41h39q70 0 76 35q4 35 6 67.5t2 65.5v616h-117q-57 0 -57 56q0 43 34 43h140l6 84q2 43 12 76.5t33.5 68.5t64.5 75t107 97q147 129 340 129q158 0 221 -84q74 74 167 110t191 36q211 0 211 -117q0 -102 -81 -102q-23 0 -46.5 13t-51 28.5t-62.5 29 t-80 13.5q-150 0 -227.5 -84t-77.5 -236q0 -33 1 -67.5t3 -69.5h428q35 0 61.5 7t46 16.5t31.5 17.5t19 8q33 0 32 -37q0 -4 -2 -16.5t-6 -30.5l-12 -59q-4 -16 -4 -96.5v-227.5v-350q0 -59 20.5 -91t61.5 -32h43q37 0 37 -29q0 -53 -48 -53h-370q-47 0 -47 49q0 33 37 33 h36q63 0 68 43q4 90 7 154.5t3 105.5v395q0 94 -47 94h-395v-649q0 -23 4 -46t18.5 -43.5t44 -34t82.5 -17.5q45 -2 45 -35q0 -49 -45 -49h-397q-45 0 -45 49q0 29 24.5 33t53.5 12q25 6 37 23.5t18 41t7 50.5t1 49v616h-428v-618q0 -23 1 -46.5t9.5 -45t23.5 -37.5t46 -25 l70 -18q45 -12 45 -35q0 -49 -45 -49h-439q-43 0 -43 49zM391 985.5q0 -12.5 2 -12.5h430l6 88q4 59 26 114.5t54 106.5q-20 10 -40.5 25.5t-45 29t-56.5 23.5t-73 10q-143 0 -223 -83t-80 -236v-65.5z" />
<glyph unicode="&#xfb04;" horiz-adv-x="1796" d="M63 49q0 41 58 41h39q70 0 76 35q4 35 6 67.5t2 65.5v616h-117q-57 0 -57 56q0 43 34 43h140l6 84q2 43 12 76.5t33.5 68.5t64.5 75t107 97q147 129 340 129q180 0 219 -82q143 150 365 150q-2 0 18.5 -3t63.5 -12q39 0 64.5 17.5t31.5 17.5q31 0 30 -35q0 -2 -3 -16 t-6 -32.5t-6 -35t-3 -22.5q-6 -55 -6 -254v-991q0 -59 20.5 -91t61.5 -32h55q37 0 37 -33q0 -49 -49 -49h-387q-41 0 -41 49q0 33 39 33h35q63 0 67 43q4 80 7 217t3 332v315q0 31 -2 121t-6 244q-6 0 -20.5 12t-31.5 26.5t-36.5 27t-38.5 12.5q-74 0 -132 -24t-99 -67 t-63.5 -102t-22.5 -129q0 -33 1 -67.5t3 -69.5h170q47 0 47 -39q0 -59 -59 -60h-158v-634q0 -29 3 -55.5t19.5 -47t53 -35t102.5 -20.5q47 -2 47 -33q0 -49 -47 -49h-426q-45 0 -45 49q0 23 19.5 31t44 11t46 9t23.5 25q4 35 6 67.5t2 65.5v616h-428v-626q0 -23 1 -45.5 t9.5 -42t24.5 -34.5t45 -24l70 -18q45 -12 45 -35q0 -49 -45 -49h-439q-43 0 -43 49zM391 985.5q0 -12.5 2 -12.5h430l6 84q4 61 24.5 116.5t55.5 108.5q-20 10 -40.5 25.5t-45 29t-56.5 23.5t-73 10q-143 0 -223 -83t-80 -236v-65.5z" />
<glyph unicode="&#xd;" horiz-adv-x="512" />
<glyph horiz-adv-x="0" />
<glyph horiz-adv-x="0" />
<glyph unicode=" "  horiz-adv-x="512" />
<glyph unicode="&#x09;" horiz-adv-x="512" />
<glyph unicode="&#xa0;" horiz-adv-x="512" />
<glyph unicode="!" horiz-adv-x="784" d="M270 92q0 63 39 107.5t99 44.5q104 0 104 -119q0 -66 -39 -105.5t-102 -39.5q-45 0 -73 32.5t-28 79.5zM274 1358q0 53 21.5 85t49.5 48t52.5 21.5t32.5 5.5q10 0 17.5 -10.5t7.5 -32.5q0 -223 -5.5 -415t-14.5 -333t-22.5 -221t-31.5 -80q-33 0 -39 59 q-10 137 -27.5 348t-38.5 504q0 4 -1 10.5t-1 10.5z" />
<glyph unicode="&#x22;" horiz-adv-x="1048" d="M244 1417q0 74 96 74q92 0 92 -74q0 -31 -16.5 -132t-38.5 -314h-82q-6 63 -15.5 138t-17.5 141.5t-13 113.5t-5 53zM592 1417q0 74 96 74q92 0 92 -74q0 -31 -16 -132t-39 -314h-82q-6 63 -15.5 138t-17.5 141.5t-13 113.5t-5 53z" />
<glyph unicode="#" d="M14 393l29 129h162l82 318h-172l26 123h178l91 354q8 39 53 39q27 0 43 -14.5t16 -43.5q0 -33 -80 -335h269l90 354q8 39 51 39q59 0 59 -58q0 -16 -18.5 -99t-58.5 -236h165l-26 -123h-172l-84 -318h166l-31 -129h-170l-104 -387q-6 -27 -41 -26q-66 0 -70 51 q0 6 92 362h-266l-105 -387q-6 -27 -43 -26q-63 0 -69 51q0 10 94 362h-156zM328 522h266l84 318h-266z" />
<glyph unicode="$" d="M156 1020q0 68 23.5 125t66.5 100t102.5 68.5t130.5 29.5v170q0 41 49 41q43 0 43 -41v-170q39 -6 68 -13t45 -7q18 0 49 14.5t55 14.5q16 0 23.5 -15.5t11.5 -42t7.5 -62.5t13.5 -79q8 -37 15 -61.5t7 -34.5q0 -35 -41 -35q-14 0 -20 8l-31 51q-18 31 -36.5 62t-40 56.5 t-52.5 43t-74 23.5v-504q195 -96 248 -137q121 -96 121 -242q0 -338 -369 -383v-195q0 -10 -12 -19t-41 -9q-18 0 -28.5 9t-10.5 19v189q-12 0 -39.5 5t-57.5 10t-56.5 10.5t-38.5 5.5q-14 0 -42 -12.5t-40 -12.5q-29 0 -29 33q0 8 2 25.5t3 37t3 38t2 26.5q0 12 -3 37.5 t-7 53.5t-7 54.5t-3 38.5q0 33 39 33q18 0 35 -37q31 -82 54 -130t49 -74.5t57.5 -36t78.5 -15.5v549q-96 47 -158.5 90t-99.5 88t-51 95t-14 114zM334 1065q0 -143 135 -236v416q-135 -43 -135 -180zM582 102q188 43 188 215q0 41 -8 73t-28.5 61.5t-57.5 57.5t-94 60v-467 z" />
<glyph unicode="%" horiz-adv-x="1755" d="M94 981q0 117 23.5 210t69.5 159.5t113 102.5t151 36q43 0 86 -16l77 -31q55 -16 152 -17q25 0 73 13.5t101 34t101.5 43t72.5 40.5q14 37 55 37q53 0 54 -55q0 -10 -281 -817q-141 -412 -219 -629t-92 -246q-14 -27 -45 -26q-63 0 -64 51q0 37 551 1585 q-16 -16 -49 -35.5t-74 -36t-82 -26.5t-71 -10q-84 0 -111 14q55 -102 55 -244q0 -113 -24.5 -205t-71.5 -158.5t-113.5 -103.5t-148.5 -37q-66 0 -119 29t-91 79t-58.5 116.5t-20.5 142.5zM225 1114q0 -84 14.5 -154.5t40 -123t63.5 -81t87 -28.5q84 0 130 82t46 209 q0 375 -200 375q-82 0 -131.5 -79t-49.5 -200zM1014 336q0 113 23.5 206t69.5 159.5t112.5 103.5t150.5 37q137 0 215 -99.5t78 -271.5q0 -106 -23.5 -198.5t-69.5 -160t-112.5 -106.5t-152.5 -39q-66 0 -119 29t-92 78t-59.5 116.5t-20.5 145.5zM1147 469 q0 -174 53.5 -280.5t151.5 -106.5q82 0 129 81t47 208q0 375 -203 374q-41 0 -73.5 -21.5t-55 -58t-36 -88t-13.5 -108.5z" />
<glyph unicode="&#x26;" horiz-adv-x="1515" d="M55 354q0 152 75 259.5t228 185.5q-12 20 -30.5 53t-36 72t-29.5 81t-12 80q0 78 28.5 136.5t75.5 96.5t107.5 57.5t126.5 19.5q127 0 205.5 -61.5t78.5 -194.5q0 -102 -64.5 -182t-168.5 -121l-102 -41q18 -41 51 -100.5t77 -127t97 -137.5t110 -129q23 23 39.5 52.5 t30.5 58.5q6 12 14.5 41.5t8.5 40.5q0 35 -19.5 56t-48.5 21q-94 0 -94 54q0 41 41 41h426q43 0 43 -37q0 -16 -17.5 -27.5t-43 -21t-54.5 -19.5t-49 -22q-16 -10 -28.5 -26.5t-24 -36t-21.5 -39t-18 -34.5q-35 -59 -67 -109t-44 -67l78 -65q43 -45 91 -64.5t93 -19.5 q53 0 90 19.5t64 68.5q14 27 30.5 40t43.5 13q59 0 59 -63q0 -39 -27.5 -72t-71.5 -56.5t-100.5 -37t-113.5 -13.5q-27 0 -59.5 3.5t-73.5 17.5t-94.5 44t-118.5 85q-14 -18 -44 -43t-77 -48.5t-113.5 -39.5t-157.5 -16q-84 0 -154.5 25.5t-122.5 73.5t-82 117.5t-30 157.5z M225 401q0 -70 22.5 -122t59.5 -87.5t83 -53t95 -17.5q96 0 163.5 23.5t94.5 52.5q-61 63 -117.5 133.5t-102.5 141.5t-81.5 137.5t-60.5 121.5q-72 -45 -114 -118.5t-42 -211.5zM406 1122q0 -33 11 -69.5t26.5 -71.5t32 -66t28.5 -51q111 49 171 125t60 174q0 59 -45 105.5 t-110 46.5q-90 0 -132 -53.5t-42 -139.5z" />
<glyph unicode="'" horiz-adv-x="524" d="M164 1417q0 74 94 74t94 -74q0 -31 -16.5 -132t-38.5 -314h-84q-4 63 -12 138t-16.5 141.5t-14.5 113.5t-6 53z" />
<glyph unicode="(" horiz-adv-x="624" d="M125 635q0 127 15.5 265t48 267t79.5 242t113 190h154q-51 -76 -97.5 -177t-80 -224t-53 -268.5t-19.5 -306.5q0 -152 23.5 -295.5t58 -272.5t77.5 -236.5t82 -187.5h-153q-53 100 -99.5 218t-79 247t-51 265.5t-18.5 273.5z" />
<glyph unicode=")" horiz-adv-x="624" d="M125 1599h154q63 -78 111 -190.5t81 -241.5t48.5 -267t15.5 -265q0 -137 -18.5 -273.5t-51.5 -265.5t-79 -246.5t-99 -218.5h-154q39 80 82 187.5t78 236.5t58.5 272.5t23.5 295.5q0 162 -19.5 307t-53.5 268t-80 224.5t-97 176.5z" />
<glyph unicode="*" horiz-adv-x="1024" d="M78 1221q0 23 30.5 49.5t61.5 36.5q-16 39 -16 69q0 49 49 49q45 0 80.5 -25.5t60.5 -56t38 -56t13 -27.5q0 -31 -49 -31h-16t-19 2q53 -29 54 -55q0 -35 -113 -35q-25 0 -55.5 7t-56 17.5t-44 24.5t-18.5 31zM152 926q0 20 24.5 46.5t60 50.5t73.5 39t63 15q31 0 30 -26 q0 -25 -30 -62q39 20 65 21q27 0 27 -33t-13.5 -71t-35 -69.5t-48 -52t-51.5 -20.5q-49 0 -49 78q0 16 2 26h-8q-111 0 -110 58zM377 1503q0 88 49 88q39 0 82 -49q45 55 102 55q39 0 39 -77q0 -29 -7 -65t-19.5 -67.5t-27.5 -53t-32 -21.5q-35 -1 -41 71q-18 -70 -45 -69 q-18 0 -36.5 21.5t-32 51t-22.5 61.5t-9 54zM446 1155q0 29 18.5 46.5t47.5 17.5q27 0 45 -17.5t18 -46.5q0 -27 -18 -45t-45 -18q-29 0 -47.5 18t-18.5 45zM547 971q0 35 26 35q25 0 66 -23q-29 35 -29 61q0 27 31 27q25 0 61.5 -16.5t71.5 -41t59.5 -52t24.5 -48.5 q0 -29 -38 -42t-83 -13q0 -51 -11 -76.5t-40 -25.5q-25 0 -50.5 20.5t-45 53t-31.5 69.5t-12 72zM635 1260q0 8 10 34.5t32.5 56t59.5 52t90 22.5q49 0 50 -49q0 -33 -19 -69q33 -10 63.5 -37t30.5 -49q0 -16 -18.5 -30.5t-46 -26t-57 -17.5t-52.5 -6q-113 0 -112 35 q0 26 53 55q-6 0 -12.5 -1t-14.5 -1q-57 0 -57 31z" />
<glyph unicode="+" d="M115 655v72q0 29 20.5 38t44.5 7q27 -2 59.5 -2h66.5h67h57v154q0 29 -2 53t-2 45q0 25 7 40t30 15h78q31 0 41 -10t10 -49q0 -18 -2 -33.5t-3 -39t-3 -61.5t-2 -104v-10h170q29 0 53 2t45 2q25 0 40 -7t15 -30v-78q0 -31 -10 -41t-49 -10q-18 0 -33.5 2t-39 3t-61.5 3 t-104 2h-26q0 -45 1 -79.5t1 -69.5q0 -61 -1 -97t-6.5 -55.5t-12.5 -24.5t-19 -5h-86q-29 0 -38 20.5t-7 44.5q2 29 4 64t5 69.5t5 67.5t2 57v8q-39 -2 -69.5 -2h-63.5q-61 0 -97 1t-55.5 6.5t-24.5 12.5t-5 19z" />
<glyph unicode="," horiz-adv-x="751" d="M201 -389q0 8 30 43l62 67q80 98 80 175q0 27 -18.5 45t-40 36.5t-40 40t-18.5 54.5q0 29 12.5 56.5t34 49t49 34.5t58.5 13q129 0 129 -157q0 -70 -21.5 -142.5t-58.5 -138.5t-87 -121t-110 -88q-16 -8 -26 -8q-35 0 -35 41z" />
<glyph unicode="-" horiz-adv-x="751" d="M102 492q0 98 86 114l398 66q6 2 20 2q51 0 51 -49q0 -92 -59 -101l-426 -69q-6 -2 -22 -2q-47 0 -48 39z" />
<glyph unicode="." horiz-adv-x="751" d="M270 92q0 63 39 107.5t99 44.5q104 0 104 -119q0 -66 -39 -105.5t-102 -39.5q-45 0 -73 32.5t-28 79.5z" />
<glyph unicode="/" horiz-adv-x="802" d="M16 -324q0 14 19 68l655 1802q18 51 66 51q49 0 49 -53q0 -14 -8 -37l-672 -1843q-12 -35 -47 -35q-61 0 -62 47z" />
<glyph unicode="0" d="M63 653q0 197 32 352.5t94.5 263t153.5 164t212 56.5q412 0 412 -672q0 -195 -34 -351.5t-96.5 -267t-154.5 -170t-209 -59.5q-96 0 -173 51.5t-129 142.5t-80 216t-28 274zM242 797q0 -336 74.5 -510t215.5 -174q59 0 106.5 42t81.5 118.5t51 184t17 238.5 q0 186 -16 314.5t-50 207t-89 112.5t-131 34q-59 0 -107.5 -41t-82 -115.5t-52 -179t-18.5 -231.5z" />
<glyph unicode="1" d="M96 49q0 33 37 33h96q117 0 158 78t41 225v889q0 94 -96 94h-99q-37 0 -36 49q0 47 36 47h179q45 0 76.5 8.5t52 17.5t32 17.5t17.5 8.5q33 0 33 -37q0 -14 -9 -47l-12 -62q-4 -14 -4 -105v-264v-778q0 -41 15.5 -67.5t37 -43t47 -23.5t43.5 -7h93q37 0 36 -33 q0 -49 -36 -49h-701q-37 0 -37 49z" />
<glyph unicode="2" d="M45 43q0 20 27.5 63.5t74 101.5t105.5 131t125 153q127 158 190.5 308t63.5 304q0 123 -61.5 195.5t-161.5 72.5q-33 0 -62 -13t-52.5 -36t-38.5 -52.5t-22 -62.5q-16 -90 -98 -90q-74 0 -74 84q0 57 31 109.5t83 92.5t118.5 62.5t140.5 22.5q178 0 283.5 -102.5 t105.5 -286.5q0 -227 -147 -443q-23 -33 -54.5 -67.5t-78.5 -89t-117 -135t-168 -205.5h367q35 0 58.5 8t41.5 32.5t37.5 71.5t46.5 125q27 84 65 84q20 0 21 -45q-2 -12 -4 -28q-2 -14 -4 -34t-6 -48q-4 -35 -9.5 -64t-3.5 -53v-33v-55q0 -78 -16 -99.5t-64 -21.5h-620 q-10 0 -42 -7t-42 -7q-39 0 -39 57z" />
<glyph unicode="3" d="M133 -14q0 49 53 49q100 0 188.5 33.5t153 96t101.5 149.5t37 192q0 111 -61.5 179.5t-153.5 68.5h-28.5t-33 -1t-30 -1h-15.5q-49 0 -49 45q0 12 10 28.5t33 26.5q154 59 215 153.5t61 211.5q0 96 -47 132.5t-116 36.5q-66 0 -105 -27.5t-49 -53.5q-27 -63 -92 -64 q-27 0 -45.5 20.5t-18.5 47.5q0 33 22.5 64.5t62.5 57t96.5 42t123.5 16.5q152 0 238 -70.5t86 -204.5q0 -121 -54 -216t-149 -144q-16 -10 -27.5 -15t-27.5 -10q16 4 29.5 4.5t25.5 0.5q57 0 109.5 -25t91.5 -69t61.5 -106.5t22.5 -135.5q0 -135 -47 -239.5t-132 -176.5 t-206 -110t-268 -38q-66 1 -66 52z" />
<glyph unicode="4" d="M16 424q0 4 5.5 13t13.5 20.5t14 20.5t10 16l584 940q37 59 53 59h43q16 0 17 -43v-909h41q27 0 46 5t35.5 21.5t32 44t33.5 74.5q20 53 43 53q20 0 21 -32q0 -14 -11.5 -51.5t-11.5 -125.5q0 -72 -12 -102.5t-66 -30.5h-151v-196q0 -66 43 -92.5t98 -26.5h55 q31 0 31 -33q0 -49 -31 -49h-555q-33 0 -32 49q0 33 32 33h49q51 0 80 16.5t42.5 39t15.5 49t2 49.5v161h-463q-2 0 -13.5 -2t-24.5 -3t-25.5 -3t-16.5 -2q-27 0 -27 37zM213 541h373v616z" />
<glyph unicode="5" d="M111 -12q0 53 82 53q94 0 186 39t165.5 105.5t119 152.5t45.5 182q0 135 -68 210t-227 116q-123 29 -186.5 88t-63.5 145q0 68 21.5 154t76.5 205q18 39 51 39q4 0 15.5 -2t25 -4.5t24.5 -4.5t17 -2q53 -4 87 -7t53.5 -5t28.5 -2h14q35 0 55 3t35.5 15.5t30 40t36.5 76.5 q16 33 41 33q29 0 29 -45q0 -66 -17.5 -119t-50 -93t-77 -61.5t-95.5 -21.5q-16 0 -46 2t-63.5 3t-64.5 3t-47 2q-18 0 -31.5 -5t-23.5 -20.5t-18.5 -45t-18.5 -76.5q-2 -6 -2 -21q0 -39 41 -69.5t98 -30.5q502 0 502 -500q0 -127 -55.5 -234.5t-150.5 -184t-220 -119.5 t-264 -43q-90 0 -90 49z" />
<glyph unicode="6" d="M76 555q0 205 57 376t161.5 295t250 193.5t319.5 69.5q31 0 31 -33q0 -18 -13.5 -31.5t-41.5 -17.5q-135 -14 -243 -79.5t-184.5 -174.5t-117.5 -257t-41 -327q0 -104 23.5 -192t65.5 -150.5t98.5 -98.5t121.5 -36q47 0 85 26.5t65.5 73t42 111t14.5 141.5 q0 88 -19.5 164t-55.5 131.5t-85 87t-108 31.5q-31 0 -52.5 -12t-37 -27.5t-24.5 -28t-17 -12.5q-41 0 -41 43q0 27 15 52.5t42 45t58.5 31t66.5 11.5q98 0 179 -33t138.5 -92.5t89 -146.5t31.5 -193q0 -109 -31.5 -203t-89 -164t-138.5 -109.5t-181 -39.5q-102 0 -183 39.5 t-136.5 114.5t-85 181.5t-29.5 239.5z" />
<glyph unicode="7" d="M66 1110q0 12 9 75.5t25 192.5q6 57 21.5 71.5t56.5 14.5h731q43 0 43 -41q0 -27 -22 -77q-47 -102 -104.5 -243.5t-129.5 -326.5q-186 -483 -186 -583q0 -12 3 -29t7 -34t7 -33.5t3 -26.5q0 -33 -27.5 -67t-82.5 -34q-47 0 -76 31t-29 66q0 23 7.5 48t19.5 58l406 1106 h-435q-70 0 -109.5 -32t-74.5 -116q-20 -51 -43 -51q-20 0 -20 31z" />
<glyph unicode="8" d="M119 342q0 63 22.5 134t60.5 129.5t88 96t105 37.5q31 0 31 -26q0 -6 -22.5 -33t-48 -70t-48 -101t-22.5 -130q0 -135 60.5 -212t170.5 -77q104 0 163.5 69.5t59.5 190.5q0 51 -13 98.5t-46 95.5t-89 99t-140 111q-133 94 -204 191t-71 212q0 76 24.5 137.5t69.5 104.5 t106.5 66.5t135.5 23.5q70 0 129 -21.5t101 -60.5t65.5 -93t23.5 -120q0 -47 -18 -97t-48 -92t-66.5 -69t-73.5 -27q-29 0 -29 37q35 31 63 68q25 31 45.5 73.5t20.5 94.5q0 45 -17.5 85t-46 67.5t-67.5 44t-82 16.5q-78 0 -121 -56.5t-43 -142.5q0 -92 53.5 -171 t182.5 -163q166 -106 250 -218t84 -247q0 -190 -114 -303.5t-327 -113.5q-76 0 -141.5 26.5t-113.5 73.5t-75.5 114.5t-27.5 147.5z" />
<glyph unicode="9" d="M86 979q0 104 29.5 196.5t87 162t138.5 110.5t185 41q203 0 315.5 -151.5t112.5 -432.5q0 -137 -35.5 -261t-96 -228.5t-137.5 -189.5t-159 -144t-162.5 -91t-148.5 -32q-57 0 -57 47q0 12 15 24.5t35.5 24t43 21.5t37.5 18q111 63 200 137t151 170.5t97 223.5t35 295 q0 213 -70.5 325.5t-187.5 112.5q-63 0 -113.5 -30t-84 -82t-51 -120.5t-17.5 -146.5q0 -170 64.5 -260t152.5 -90q45 0 79 10t64 39q27 25 54 24q35 0 34 -36q0 -27 -21.5 -53.5t-56 -48t-79.5 -35t-95 -13.5q-170 0 -264 120t-94 343z" />
<glyph unicode=":" horiz-adv-x="751" d="M242 92q0 61 37.5 106.5t97.5 45.5q104 0 104 -119q0 -66 -37.5 -105.5t-103.5 -39.5q-45 0 -71.5 31.5t-26.5 80.5zM242 842q0 61 37.5 105t97.5 44q104 0 104 -119q0 -66 -37.5 -104.5t-103.5 -38.5q-98 0 -98 113z" />
<glyph unicode=";" horiz-adv-x="751" d="M141 -389q0 8 31 43l61 67q78 96 78 175q0 27 -18.5 46t-40 37.5t-38.5 40t-17 52.5q0 29 12 56.5t33.5 49t49 34.5t58.5 13q127 0 127 -157q0 -70 -20.5 -142.5t-57.5 -139.5t-87 -121t-109 -87q-8 -4 -14.5 -6t-14.5 -2q-33 0 -33 41zM242 842q0 61 37.5 105t97.5 44 q104 0 104 -119q0 -66 -37.5 -104.5t-103.5 -38.5q-98 0 -98 113z" />
<glyph unicode="&#x3c;" d="M201 674v86q0 33 40 60.5t107 68.5l277 166q23 14 48 30.5t48.5 32t44 25.5t31.5 10q16 0 28 -18l35 -62q12 -23 12 -33q0 -18 -46 -44.5t-119 -69.5l-113 -66q-78 -47 -137.5 -79.5t-102.5 -57.5l449 -289q18 -12 38.5 -35.5t20.5 -44.5q0 -6 -4 -14l-41 -55 q-16 -18 -35 -19q-18 0 -37.5 9.5t-39.5 23.5l-201 131q-152 98 -227.5 153.5t-75.5 90.5z" />
<glyph unicode="=" d="M115 455v71q0 29 20.5 37t44.5 8q55 0 110.5 -3t108.5 -3q115 0 228.5 4t222.5 4q25 0 40 -7t15 -29v-70q0 -18 -15.5 -28.5t-53 -15.5t-103 -6t-164.5 -1q-152 0 -241.5 1t-137 4t-61.5 11t-14 23zM115 819v72q0 29 20.5 37t44.5 8q55 0 110.5 -3t108.5 -3 q115 0 228.5 4t222.5 4q25 0 40 -7t15 -30v-70q0 -18 -15.5 -28t-53 -15.5t-103 -6.5t-164.5 -1q-152 0 -241.5 1t-137 4t-61.5 11.5t-14 22.5z" />
<glyph unicode="&#x3e;" d="M209 1040q0 10 12 33l35 62q12 18 29 18q10 0 30.5 -10t44 -25.5t49 -32t48.5 -30.5l276 -166q68 -41 108 -68.5t40 -60.5v-86q0 -35 -76 -90.5t-227 -153.5l-201 -131q-20 -14 -41 -23.5t-37 -9.5q-23 0 -35 19l-41 55q-4 4 -4 14q0 20 20.5 44t39.5 36l448 289 q-43 25 -102.5 57.5t-137.5 79.5l-112 66q-76 43 -121 69.5t-45 44.5z" />
<glyph unicode="?" horiz-adv-x="980" d="M256 1409q0 49 40 80t99 31q68 0 128.5 -32t106.5 -84t72.5 -119.5t26.5 -139.5t-15.5 -133.5t-60.5 -104.5l-141 -135q-37 -35 -56.5 -79t-19.5 -89q0 -29 13.5 -62.5t29.5 -62.5q20 -35 45 -69q0 -27 -26 -27q-37 0 -73 35t-63.5 85t-45 106.5t-17.5 99.5q0 49 17.5 97 t56.5 95l135 160q41 47 56.5 101.5t15.5 109.5q0 59 -35 102t-92 43q-12 0 -27.5 -11t-31 -25.5t-30 -26t-28.5 -11.5q-80 0 -80 66zM330 92q0 59 36.5 105.5t98.5 46.5q104 0 104 -119q0 -66 -39 -105.5t-102 -39.5q-47 0 -72.5 32.5t-25.5 79.5z" />
<glyph unicode="@" horiz-adv-x="2048" d="M96 444q0 219 73 409.5t202 332t307 222.5t391 81q199 0 362.5 -53.5t282.5 -150.5t184.5 -233.5t65.5 -303.5q0 -154 -58.5 -288t-158.5 -233.5t-237.5 -157t-292.5 -57.5q-102 0 -103 78q0 53 6 84h-12q-117 -164 -258 -164q-55 0 -103.5 21.5t-84 59.5t-55 90 t-19.5 112q0 133 43 257t115.5 219t169 152.5t204.5 57.5q27 0 58.5 -8t61.5 -23.5t56.5 -35t42.5 -42.5q35 41 72 77t59 36q12 0 13 -20q0 -14 -4 -38t-15 -57q-39 -123 -88 -276.5t-102 -339.5q-8 -27 -8 -55q0 -84 77 -84q104 0 193.5 53t156 141t104.5 203t38 240 q0 145 -54.5 260.5t-152.5 197.5t-237.5 125t-309.5 43q-182 0 -333.5 -66.5t-261 -188.5t-171 -293t-61.5 -379q0 -186 58.5 -338t165 -260.5t258 -168t335.5 -59.5q150 0 260.5 19.5t208.5 66.5q33 14 57 15q23 0 23 -23q0 -33 -52 -62.5t-136 -53t-189.5 -37 t-212.5 -13.5q-207 0 -379 64.5t-295 182.5t-191.5 286t-68.5 376zM793 297q-1 -176 122 -176q117 0 220 287q119 332 118 374q0 45 -36.5 77t-96.5 32q-66 0 -125 -55.5t-104 -141.5t-71.5 -191.5t-26.5 -205.5z" />
<glyph unicode="A" horiz-adv-x="1525" d="M10 45q0 35 56 35q70 0 100.5 27.5t52.5 85.5l477 1198q37 94 56 94h26q12 0 47 -86l428 -1090q16 -43 41 -96t47 -78q20 -23 56.5 -38t77.5 -17q41 -4 41 -35q0 -45 -62 -45h-457q-47 0 -47 43q0 23 20.5 28t45 9t45 14t20.5 43q0 12 -10 44t-26.5 77t-38 97.5 t-41.5 105.5h-504q-102 -244 -103 -314q0 -29 25 -40t55.5 -18t55 -15t24.5 -29q0 -45 -49 -45h-414q-18 0 -31.5 15.5t-13.5 29.5zM496 561h440l-219 582z" />
<glyph unicode="B" horiz-adv-x="1251" d="M47 51q0 33 25.5 35t60.5 4q18 0 35.5 4t33 15.5t26 33t12.5 58.5q4 53 6 110.5t4 106.5t2 87v52v291q0 14 -1 67.5t-3 118l-4 129t-4 101.5t-9.5 59.5t-25 33.5t-45 15t-68.5 4q-45 0 -45 37q0 41 48 48t132 7h59.5t65.5 2q86 4 145.5 6.5t98.5 2.5q475 0 475 -316 q0 -135 -74.5 -219t-210.5 -110v-9q84 -4 155 -32.5t122 -77.5t79.5 -114.5t28.5 -139.5q0 -461 -522 -461h-543q-59 0 -59 51zM420 381q0 -82 5 -136.5t24.5 -86t58.5 -45t104 -13.5q166 0 261.5 92.5t95.5 258.5q0 290 -370 290h-3h-174v-184q0 -51 -1 -95t-1 -81z M422 858h100q166 0 255 77t89 224q0 104 -69.5 162.5t-198.5 58.5q-164 0 -168 -77q-4 -117 -6 -196t-2 -120v-129z" />
<glyph unicode="C" horiz-adv-x="1304" d="M102 725q0 174 45.5 313.5t131.5 236.5t210.5 148.5t284.5 51.5q18 0 50 -5.5t68 -11.5t67.5 -11t48.5 -5q23 0 46 17.5t36 17.5q16 0 25 -12.5t16.5 -39t15.5 -69.5t24 -107q18 -80 19 -127q0 -37 -33 -37q-27 0 -51 52q-33 66 -73 109.5t-85 69t-95 36t-101 10.5 q-96 0 -178 -48t-141.5 -129t-94.5 -189.5t-35 -227.5q0 -154 39 -273.5t111.5 -203.5t177 -128t235.5 -44q111 0 219 69q47 29 68 30q53 0 53 -36q0 -43 -43 -81t-110.5 -65.5t-149.5 -43t-162 -15.5q-139 0 -256.5 57.5t-202.5 159t-132.5 237.5t-47.5 294z" />
<glyph unicode="D" horiz-adv-x="1458" d="M47 51q0 23 14.5 29t35 7t45 2t46 10.5t36 32t16.5 69.5q2 98 4 160.5t4 100.5t2 59.5v35.5v291q0 104 -3 207.5t-7 208.5q-2 37 -9.5 59.5t-25 33.5t-45 15t-68.5 4q-45 0 -45 37q0 39 40 47t112 8h59q111 0 198 5.5t140 5.5q373 0 566.5 -185.5t193.5 -541.5 q0 -369 -184.5 -564.5t-536.5 -195.5q-41 0 -94.5 1t-101.5 3t-79.5 3t-29.5 1h-224q-59 0 -59 51zM422 557q0 -133 2 -217t6 -121q10 -72 50 -100.5t132 -28.5q260 0 399.5 168t139.5 473q0 311 -141.5 474t-415.5 163q-88 0 -125 -23.5t-39 -64.5q-4 -80 -6 -153.5 t-2 -139.5v-430z" />
<glyph unicode="E" horiz-adv-x="1245" d="M47 51q0 35 64 35q51 0 79.5 15.5t44 45t19.5 73.5t4 104v129v204q0 621 -31 670q-14 20 -42.5 28.5t-58.5 14.5t-51.5 16.5t-21.5 32.5q0 45 33 45h938q76 0 76 -61v-260q0 -45 -37 -45q-35 0 -47 45q-20 78 -39 123t-45.5 67.5t-66.5 28.5t-103 6h-162q-53 0 -87 -8 t-54.5 -27.5t-27.5 -54.5t-7 -86l2 -379h180q53 0 86 4t53.5 21.5t31.5 52.5t22 94q6 43 41 43q39 0 39 -43v-481q0 -45 -35 -45q-37 0 -43 45q-12 70 -20.5 108.5t-16.5 51.5q-29 43 -158 43h-180l-2 -433q0 -63 11 -100t41 -56.5t77 -24.5t117 -5q16 0 30.5 1t26.5 1h10 q123 0 207 41t125 127q29 59 48.5 105.5t45.5 46.5q37 0 37 -37q0 -45 -65 -297q-20 -76 -66 -76h-960q-61 0 -62 51z" />
<glyph unicode="F" horiz-adv-x="1114" d="M47 51q0 23 13.5 29t34 7t44 1t45 9t37 33t19.5 71q12 150 12 254v532q0 291 -31 340q-14 20 -42.5 28.5t-58.5 14.5t-51.5 16.5t-21.5 32.5q0 45 33 45h938q76 0 76 -61v-260q0 -45 -37 -45q-35 0 -47 45q-20 80 -39 125t-45.5 67.5t-66.5 27.5t-103 5h-162 q-51 0 -85 -7t-54.5 -27.5t-28.5 -54.5t-8 -87l2 -379h182q51 0 85 5t53.5 22.5t30.5 51.5t22 93q6 43 41 43q39 0 38 -43v-481q0 -45 -34 -45q-37 0 -43 45q-25 135 -37 158q-14 23 -54 33t-102 12l-182 2v-203q0 -113 1 -186.5t5 -118.5t14.5 -66.5t28.5 -31t46 -11.5 t69 -6q49 -6 49 -31q0 -55 -53 -55h-474q-59 0 -59 51z" />
<glyph unicode="G" horiz-adv-x="1460" d="M102 729q0 168 46.5 306.5t132.5 235.5t208.5 150.5t276.5 53.5q20 0 57 -5.5t74 -11.5t65.5 -11t36.5 -5q23 0 47.5 17.5t32.5 17.5q20 0 28.5 -7.5t14.5 -32t14.5 -69.5t26.5 -119q18 -80 19 -127q0 -37 -33 -37q-12 0 -28.5 18.5t-32 41t-27.5 44t-14 25.5 q-53 82 -136.5 115t-167.5 33q-96 0 -176 -48t-138 -130t-91 -188.5t-33 -225.5q0 -661 531 -661h2q53 0 111.5 11t103.5 34v266q0 86 -28 118.5t-107 32.5q-94 0 -95 54q0 41 41 41h510q43 0 43 -37q0 -27 -21.5 -39t-49 -17.5t-55 -9.5t-38.5 -16q-29 -33 -28 -107v-194 q0 -12 3 -29.5t8 -35t8 -32t3 -18.5q0 -25 -59.5 -51.5t-141 -49t-170 -38t-143.5 -15.5q-139 0 -255 56.5t-198.5 157t-130 238.5t-47.5 300z" />
<glyph unicode="H" horiz-adv-x="1605" d="M47 51q0 27 19.5 32t48.5 5q20 0 41.5 2t39 13.5t30 34t14.5 63.5l6 182q2 59 3 102t1 72v291q0 29 -1 80t-3 123l-6 213q-2 37 -9.5 59.5t-25 33.5t-45 15t-68.5 4q-45 0 -45 37q0 51 59 51h472q55 0 55 -51q0 -20 -26.5 -26.5t-61.5 -14.5q-23 -4 -44.5 -11t-38 -18.5 t-27.5 -30t-11 -44.5v-47t-1 -89.5t-1 -90.5v-50v-164h733v197v80q0 53 -3 101t-14.5 85t-34 59.5t-59.5 22.5q-29 0 -60.5 6t-31.5 35q0 51 62 51h487q53 0 53 -55q0 -25 -29.5 -29t-66.5 -8q-23 -2 -44 -7t-38.5 -16.5t-29 -33t-11.5 -53.5q0 -2 -1 -42t-3 -91.5 t-3 -100.5t-1 -70v-452q0 -135 1 -212t11.5 -118t34 -56.5t68.5 -25.5q23 -6 43 -7t36.5 -3t27 -8t10.5 -21q0 -55 -54 -55h-491q-61 0 -62 51q0 29 22.5 32t53.5 5q20 0 42 3t38 14.5t27.5 33t11.5 62.5q0 25 1 73t3 97t3 89t1 48v205h-733v-207v-219t2 -90q8 -51 52 -81 t126 -30q51 0 51 -31q0 -55 -55 -55h-492q-59 0 -59 51z" />
<glyph unicode="I" horiz-adv-x="792" d="M102 51q0 29 24 32t56 5q18 0 39 4t37 15.5t26.5 33t12.5 60.5l6 182q2 59 3 102t1 72v291q0 29 -1 80t-3 123l-6 213q-2 37 -10 59.5t-24.5 33.5t-44.5 15t-68 4q-47 0 -48 37q0 51 62 51h450q55 0 56 -51q0 -18 -29 -26.5t-63 -20.5q-35 -12 -64 -33.5t-33 -64.5 q-2 -18 -2 -87v-190v-485v-213t4 -96q10 -88 76 -99l80 -12q51 -10 51 -31q0 -55 -55 -55h-471q-61 0 -62 51z" />
<glyph unicode="J" horiz-adv-x="761" d="M-31 -373q0 18 24.5 30.5t63.5 32t84 51.5t86 87q33 45 50.5 90t25.5 105.5t10 145.5t2 210q0 293 -2 514t-6 371q-4 110 -123 110h-2q-37 0 -58.5 1t-32.5 6t-13 12.5t-2 19.5q0 51 59 51h533q53 0 53 -51q0 -23 -35 -29t-78 -16q-39 -10 -72.5 -31.5t-41.5 -68.5 q-4 -16 -4.5 -59.5t-0.5 -114.5v-752q0 -10 2.5 -65.5t2.5 -149.5q0 -135 -32 -234.5t-126 -185.5q-139 -127 -324 -127q-16 0 -29.5 15.5t-13.5 31.5z" />
<glyph unicode="K" horiz-adv-x="1486" d="M47 51q0 23 14.5 29t35 7t45 2t46 10.5t36 32t16.5 69.5l6 182q2 59 3 102t1 72v291v164q0 74 -2 139.5t-11.5 114.5t-25.5 77.5t-45 28.5h-31q-14 0 -29.5 2t-29 8.5t-21.5 17.5t-8 32q0 32 56 32h3h453q53 0 53 -32q0 -27 -25.5 -40.5t-60.5 -25.5q-35 -14 -64.5 -34.5 t-35.5 -63.5q-4 -18 -4 -87v-190v-200l459 450q59 59 59 82q0 33 -17.5 43t-72.5 18q-37 2 -37 43q0 37 27 37h465q31 0 30 -32q0 -23 -27.5 -37.5t-63.5 -25.5t-69.5 -18.5t-46.5 -15.5q-23 -14 -77 -69l-428 -432l467 -545q152 -207 329 -207q55 0 56 -31q0 -51 -66 -51 q-111 0 -184.5 5t-110.5 18q-117 35 -219 176l-473 569v-262q0 -135 1 -213t3 -96q4 -35 15.5 -54.5t29.5 -31t46 -16.5t65 -9q51 -6 51 -31q0 -55 -53 -55h-474q-59 0 -59 51z" />
<glyph unicode="L" horiz-adv-x="1245" d="M47 51q0 18 20.5 27.5t46 12.5t48 3h24.5q51 20 54 107l6 172q2 53 3 96t1 78v311q0 -4 -3 97.5t-7 308.5q-2 112 -101 112h-2h-20q-35 0 -52.5 7.5t-17.5 29.5q0 51 59 51h453q53 0 53 -51q0 -10 -19.5 -21.5t-43 -19.5t-45 -14t-23.5 -8q-25 -12 -37 -22.5t-17 -35 t-5 -70.5v-130v-586q0 -139 1 -216t3 -93q16 -109 174 -109q117 0 200 12.5t141 42t96 78.5t69 123q12 29 28.5 44t32.5 15q14 0 21.5 -9t7.5 -19t-3 -25.5t-9 -48.5l-45 -217q-18 -84 -76 -84h-957q-59 0 -59 51z" />
<glyph unicode="M" horiz-adv-x="1996" d="M2 51q0 18 24.5 28.5t55.5 17.5t57.5 10.5t32.5 7.5q31 18 50.5 51t23.5 86l80 905q4 29 4 53.5v44.5q0 53 -22.5 78t-86.5 29q-63 4 -84.5 21.5t-21.5 41.5q0 39 43 39h174q14 0 38.5 3t51.5 6.5t49.5 6.5t32.5 3q33 0 55 -60l406 -1120h12l469 1059q51 121 92 121 q35 0 77 -9.5t66 -9.5h226q31 0 30 -30q0 -37 -19.5 -51.5t-47 -18.5t-61 -5t-61.5 -11.5t-47.5 -35t-19.5 -77.5q0 -14 1 -24.5t1 -16.5l68 -942q10 -133 143 -156l74 -12q27 -6 27 -29q0 -55 -60 -55h-534q-18 0 -31.5 18.5t-13.5 36.5q0 37 45 37q94 0 134 33 q33 28 33 100q0 15 -1 31l-70 911l-500 -1122q-31 -68 -43 -68h-32q-20 0 -45 68l-422 1112l-80 -846q-2 -20 -3 -38.5t-1 -34.5q0 -145 143 -146h57q27 0 27 -37q0 -55 -55 -55h-500q-41 0 -41 51z" />
<glyph unicode="N" horiz-adv-x="1624" d="M31 1427q0 37 53 37h192q45 0 96.5 12.5t73.5 12.5q23 0 41.5 -23.5t28.5 -40.5l729 -1101v872q0 92 -47 129t-168 37q-18 0 -32.5 19.5t-14.5 39.5q0 43 47 43h537q37 0 37 -43q0 -59 -68 -59q-98 0 -135 -37t-37 -129v-1151q0 -80 -55 -80q-31 0 -74 64l-846 1259 v-1036q0 -160 191 -160q51 0 51 -29q0 -63 -51 -63h-496q-51 0 -51 57q0 35 33 35q203 0 202 160v954q0 49 -6 80t-24.5 49.5t-53 25.5t-92.5 11q-31 2 -46 17.5t-15 37.5z" />
<glyph unicode="O" horiz-adv-x="1550" d="M102 754q0 143 45.5 276t129 235.5t203.5 164t272 61.5t279.5 -56.5t219.5 -154.5t144.5 -233.5t52.5 -292.5q0 -166 -49 -308.5t-138.5 -246t-211.5 -163t-269 -59.5q-152 0 -276.5 52.5t-213.5 153t-138.5 243.5t-49.5 328zM315 762q0 -170 35 -295t97.5 -206t151 -121 t194.5 -40q125 0 211 52.5t139 139.5t77.5 201.5t24.5 241.5q0 147 -40 265t-110.5 199t-164.5 124t-205 43q-86 0 -161 -34t-130 -106.5t-87 -187t-32 -276.5z" />
<glyph unicode="P" horiz-adv-x="1206" d="M47 51q0 29 24.5 32t57.5 5q18 2 37.5 6t35 15.5t26 33t12.5 58.5q6 158 8 246t2 110v301v219q0 154 -19.5 222.5t-97.5 68.5q-86 0 -86 45q0 51 59 51h199q18 0 60.5 2t88.5 5.5t87 5.5t61 2q543 0 543 -387q0 -223 -152.5 -341t-425.5 -118q-104 0 -104 57q0 47 108 47 q174 0 268.5 91.5t94.5 265.5q0 282 -270 282h-2q-82 0 -130.5 -17.5t-73 -54t-31.5 -94t-7 -137.5v-147.5t1 -160.5t1 -145.5v-103.5v-252q0 -55 9 -87t28.5 -49t49.5 -25.5t71 -14.5q53 -10 53 -33q0 -55 -53 -55h-474q-59 0 -59 51z" />
<glyph unicode="Q" horiz-adv-x="1529" d="M102 754q0 162 49.5 297t136.5 233t206.5 152.5t261.5 54.5q154 0 281.5 -56.5t219 -154.5t141.5 -233.5t50 -292.5q0 -127 -32 -252t-93 -227.5t-153.5 -175t-213.5 -97.5q-2 -2 -6 -2q70 -12 120 -26.5t85 -31t61.5 -38t51.5 -51.5q55 -70 91 -111t63.5 -62.5t51 -28.5 t52.5 -7q14 0 39.5 4t49 9t42 9t20.5 4q29 0 29 -28q0 -27 -19.5 -47.5t-52 -36t-73.5 -23.5t-84 -8q-137 0 -248 49t-158 129q-18 31 -36.5 75t-49.5 86t-81 72.5t-132 34.5q-170 8 -296 75t-209 174.5t-124 244.5t-41 287zM315 762q0 -324 128.5 -493t349.5 -169 q125 0 211 52.5t139 139.5t77.5 201.5t24.5 241.5q0 147 -40 265t-106.5 199t-153.5 124t-183 43q-92 0 -173 -33t-142.5 -105.5t-96.5 -187t-35 -278.5z" />
<glyph unicode="R" horiz-adv-x="1466" d="M47 51q0 35 55 35h35q92 0 103 115q12 162 12 356v422q0 113 -2 188.5t-15.5 120.5t-41 63.5t-78.5 18.5q-68 0 -68 43q0 51 59 51h199q20 0 62.5 2t88.5 5.5t87 5.5t59 2q123 0 224.5 -23.5t172 -70t109.5 -112t39 -151.5q0 -346 -340 -415q82 -23 144.5 -52.5 t109.5 -78t84 -119t72 -172.5q14 -47 38.5 -88t54 -73t63.5 -50.5t69 -18.5q55 0 55 -32q0 -18 -18.5 -36t-36.5 -18q-98 0 -172 18.5t-132.5 63.5t-103.5 118t-82 181q-53 156 -149 234t-230 78q-120 0 -120 58q0 30 20.5 39t87.5 9q80 0 148.5 26.5t119 73.5t78 113 t27.5 143q0 119 -73 185.5t-199 66.5q-80 0 -128.5 -17.5t-73 -53t-31.5 -92t-7 -134.5q0 -45 1 -95t1 -110q0 -106 -1 -184t-1 -131v-295q0 -72 19.5 -116t62.5 -50l74 -10q55 -10 55 -33q0 -55 -53 -55h-474q-59 0 -59 51z" />
<glyph unicode="S" horiz-adv-x="1071" d="M102 1126q0 78 29 144.5t80 115t120.5 75t151.5 26.5q10 0 41 -3t64 -7t59.5 -7.5t32.5 -3.5q33 0 66.5 16.5t41.5 16.5q27 0 38.5 -17.5t16.5 -48t8 -71.5t15 -88q10 -37 16.5 -63.5t6.5 -45.5q0 -41 -49 -41q-10 0 -39 47l-51 86q-25 43 -48.5 70t-49 42t-54.5 20.5 t-63 5.5q-98 0 -163 -59.5t-65 -161.5q0 -55 10.5 -97.5t41 -79t86 -72.5t145.5 -79q113 -55 186.5 -102.5t116.5 -95.5t59.5 -101t16.5 -123q0 -442 -512 -442q-31 0 -65 5t-63.5 12t-49 12t-21.5 5q-33 0 -53.5 -13t-32.5 -13q-47 0 -47 49q0 2 5 42t5 91q0 74 -11 124 t-11 77q0 49 59 49q12 0 21.5 -12.5t17.5 -31t14 -40t13 -39.5q0 -2 1 -3t1 -3q25 -63 50 -104.5t55 -66t63.5 -34.5t76.5 -10q129 0 209 72.5t80 203.5q0 94 -45 168t-156 131l-153 78q-166 82 -242 172t-76 223z" />
<glyph unicode="T" horiz-adv-x="1423" d="M41 1094v309q0 61 76 61h1188q78 0 77 -61v-309q0 -45 -36 -45q-35 0 -48 45q-25 94 -46 149t-48.5 83t-64.5 35t-95 7h-135q-14 0 -30.5 -9t-30.5 -23.5t-25.5 -32t-13.5 -35.5t-3 -87t-1 -190v-485q0 -272 6 -309q4 -43 22.5 -69t51.5 -30l112 -12q49 -6 50 -31 q0 -55 -54 -55h-542q-59 0 -60 51q0 35 45 35h44.5t35.5 2q33 2 54.5 12.5t32.5 34t16.5 62.5t9.5 98q2 29 3 67.5t2 77.5t1 71v46v291q0 23 -2 85t-4 132t-4 127t-2 72q0 104 -99 104h-145q-55 0 -93 -8t-65.5 -36t-50.5 -82t-45 -148q-12 -45 -47 -45q-37 0 -37 45z" />
<glyph unicode="U" horiz-adv-x="1544" d="M47 1413q0 51 59 51h461q53 0 54 -51q0 -16 -28 -24.5t-61.5 -20.5t-63.5 -34.5t-34 -65.5q-4 -18 -4 -87v-190v-424q0 -205 95.5 -325.5t269.5 -120.5q186 0 287.5 110.5t101.5 309.5v723q0 70 -36 91t-122 21q-45 0 -45 37q0 51 59 51h402q55 0 55 -51 q0 -14 -14.5 -20.5t-36.5 -14.5l-51 -16q-76 -25 -86 -94q-2 -18 -3 -87t-1 -190v-475q0 -262 -135.5 -399t-393.5 -137q-256 0 -390 135t-134 391v94t-1 142t-4 213t-7 309q0 37 -8.5 59.5t-25 33.5t-44 15t-70.5 4q-45 0 -45 37z" />
<glyph unicode="V" horiz-adv-x="1505" d="M8 1430q0 34 50 34h3h455q55 0 55 -30q0 -39 -36 -48l-66 -14q-25 -6 -37 -22.5t-12 -32.5q0 -18 3 -31.5t11 -34.5l336 -921l336 850q14 35 24.5 74.5t10.5 66.5q0 31 -28 41t-61.5 15t-61 13.5t-27.5 34.5q0 39 65 39h424q45 0 45 -26q0 -41 -80 -62q-4 0 -5 -1t-5 -1 q-41 -12 -64.5 -19t-37 -20.5t-23.5 -36t-25 -61.5l-473 -1196q-25 -63 -47 -64h-30q-18 0 -43 70l-422 1194q-20 57 -49 86t-59 40t-53.5 12t-33.5 3q-39 4 -39 48z" />
<glyph unicode="W" horiz-adv-x="2338" d="M8 1430q0 34 50 34h3h455q55 0 55 -30q0 -27 -23.5 -40.5t-52 -21.5t-52 -15t-23.5 -22q0 -47 14 -84l336 -921l332 841l-25 70q-20 57 -50 86t-58.5 41t-52 12t-33.5 2q-39 4 -39 48q0 34 50 34h3h547q49 0 49 -34q0 -37 -82 -54q-84 -16 -112.5 -44.5t-28.5 -80.5 l334 -921l358 907q4 10 11 36.5t7 47.5q0 27 -28.5 37t-63.5 17t-63.5 16.5t-28.5 33.5q0 39 92 39h398q45 0 45 -32q0 -37 -78 -56q-43 -10 -67.5 -17t-40 -21.5t-26 -37t-26.5 -63.5l-473 -1196q-25 -63 -47 -64h-33q-6 0 -18.5 17.5t-24.5 52.5l-334 948l-379 -954 q-25 -63 -47 -64h-30q-18 0 -43 70l-422 1194q-20 57 -49 86t-59 40t-53.5 12t-33.5 3q-39 4 -39 48z" />
<glyph unicode="X" horiz-adv-x="1513" d="M10 29q0 20 26.5 35.5t62.5 28.5t73 25.5t55 24.5q23 14 43.5 36t42.5 50l377 486l-336 524q-51 80 -116.5 107.5t-118.5 35.5q-39 6 -39 48q0 34 48 34h3h457q55 0 55 -30q0 -23 -19.5 -37.5t-44 -24.5t-44 -18t-19.5 -19q0 -43 29 -84l256 -381l235 355q55 82 56 104 q0 25 -24 34t-51.5 14t-51 14.5t-23.5 33.5q0 39 123 39h373q45 0 45 -26q0 -20 -26.5 -37t-62.5 -30t-70 -25.5t-48 -24.5q-16 -14 -40 -31.5t-46 -52.5l-322 -471l353 -543q45 -70 101 -98.5t142 -40.5q39 -6 39 -49q0 -35 -53 -35h-434q-55 0 -55 31q0 20 16 34.5 t34.5 23.5t35 17.5t16.5 18.5q0 16 -14.5 40.5t-30.5 49.5l-260 387l-293 -373q-43 -55 -43 -94q0 -27 21.5 -35t47 -13t47 -13t21.5 -35q0 -39 -121 -39h-383q-45 0 -45 29z" />
<glyph unicode="Y" horiz-adv-x="1406" d="M6 1430q0 34 50 34h3h416q55 0 55 -30q0 -18 -9 -28.5t-21.5 -16t-26.5 -8.5t-27 -5q-23 -4 -34 -16t-11 -23q0 -18 9.5 -37.5t17.5 -35.5q2 -6 12.5 -25.5t40 -77t86 -163t152.5 -281.5l297 520q43 74 43 92q0 27 -29 36t-62.5 14t-61 13.5t-27.5 32.5q0 20 12 29.5 t53 9.5h412q23 0 34 -7t11 -30q0 -14 -10.5 -22t-25.5 -13.5t-32.5 -9.5t-29.5 -8q-29 -10 -61 -19t-44 -38q-6 -10 -20.5 -30.5t-30.5 -49.5l-381 -645v-250q0 -53 1 -97t9 -77t25.5 -51.5t48.5 -18.5q59 0 95 -9t36 -34q0 -55 -53 -55h-473q-59 0 -60 51q0 29 23.5 32 t56.5 5q18 0 39 3t37 14.5t27.5 32t13.5 57.5q2 41 3 69.5t1 44.5v283l-356 649q-31 57 -49.5 84t-37 38t-42 12t-66.5 7q-39 6 -39 48z" />
<glyph unicode="Z" horiz-adv-x="1191" d="M63 35q0 14 60 110l737 1221h-352q-78 0 -121 -15.5t-71.5 -44t-50 -69.5t-52.5 -92q-31 -47 -57 -47q-43 0 -43 39q0 8 27.5 77.5t49.5 210.5q6 53 46 54q2 0 17 -2t36.5 -5.5t44 -5.5t39.5 -2h651q61 0 61 -32q0 -31 -61 -132l-702 -1185h385q47 0 91 23.5t82 58 t66.5 74.5t44.5 75q33 68 74 68q43 0 43 -37q0 -4 -10.5 -29.5t-24.5 -70t-29.5 -104.5t-25.5 -134q-6 -51 -43 -51q-4 0 -19.5 2t-37 4t-44 4t-36.5 2h-711q-63 0 -64 35z" />
<glyph unicode="[" horiz-adv-x="958" d="M297 -358v1957h426v-149h-260v-1669h260v-139h-426z" />
<glyph unicode="\" horiz-adv-x="802" d="M25 1522q0 23 19 39t44 16q33 0 43 -31q678 -1855 678 -1863q0 -49 -61 -50q-39 0 -52 31q-672 1847 -671 1858z" />
<glyph unicode="]" horiz-adv-x="958" d="M215 -219h260v1669h-260v149h426v-1957h-426v139z" />
<glyph unicode="^" d="M115 903l354 590h90l340 -590h-156l-235 410l-238 -410h-155z" />
<glyph unicode="_" horiz-adv-x="1030" d="M0 -205h1030v-119h-1030v119z" />
<glyph unicode="`" horiz-adv-x="632" d="M164 1669q0 31 47 31q74 0 96 -39q4 -8 15.5 -66.5t33.5 -173.5q43 -225 43 -245q0 -19 -14 -19q-35 0 -70.5 85t-87.5 224q-33 88 -48 139.5t-15 63.5z" />
<glyph unicode="a" horiz-adv-x="909" d="M80 168q0 80 30.5 135t92 97t156 76t223.5 73q6 135 6 205q0 84 -19.5 115.5t-70.5 31.5q-84 0 -142.5 -51t-81.5 -131q-20 -70 -92 -70q-23 0 -42 19.5t-19 48.5q0 90 186 207q129 80 207 80q63 0 108.5 -19.5t73 -63.5t40 -118t12.5 -182q0 -31 -4.5 -95.5t-8.5 -135.5 t-8 -135.5t-4 -94.5q0 -63 59 -64q6 0 16.5 5t21.5 10.5t20.5 10.5t13.5 5q35 0 35 -35q0 -18 -18.5 -38.5t-45 -38t-56.5 -28t-52 -10.5q-147 0 -148 179q0 86 13 307l-158 -57q-94 -35 -138 -91.5t-44 -132.5q0 -39 29.5 -68.5t66.5 -29.5q25 0 52.5 11t52 25.5t45 26 t32.5 11.5q31 0 31 -29q0 -25 -19 -45q-90 -117 -264 -117q-84 0 -136 52.5t-52 148.5z" />
<glyph unicode="b" horiz-adv-x="995" d="M4 1513q0 31 37 31h129q20 0 48 6t56 17q31 10 66 24q31 0 31 -35q0 -18 -6 -55l-7 -51q-4 -31 -4 -58.5t-2 -54.5q-6 -102 -9 -168.5t-4 -112.5t-2 -81t-1 -74v-70.5t1 -96t1 -134.5v-188q0 -319 182 -320q53 0 97.5 29t76 81t49 124.5t17.5 162.5q0 387 -178 388 q-27 0 -56.5 -20.5t-56.5 -46.5t-47.5 -46.5t-28.5 -20.5q-33 0 -33 35q0 43 20.5 83t53.5 72t73 51.5t81 19.5q76 0 138 -32t105 -91.5t67 -142.5t24 -183q0 -111 -33 -216.5t-92.5 -187t-141.5 -132t-180 -50.5q-33 0 -55.5 2t-44 13.5t-47 33t-64.5 58.5q-23 -47 -42 -80 t-42 -33t-22 27q0 4 1 6t1 6q8 76 14 122t8 77.5t2 59.5v68v101.5t2 163.5q2 154 3 244t1 123q0 47 -1 123.5t-2 149.5t-2 125t-1 48q0 57 -65 57h-62q-53 0 -53 49z" />
<glyph unicode="c" horiz-adv-x="745" d="M63 385q0 143 32 258t90.5 195t141.5 123t183 43q33 0 64.5 -9.5t56 -26t40 -37t15.5 -44.5q0 -82 -61 -82q-20 0 -40 12t-39.5 25.5t-41 26t-43.5 12.5q-51 0 -95 -34t-76 -91.5t-50.5 -134t-18.5 -162.5q0 -184 60.5 -270.5t171.5 -86.5q47 0 89 24t76 64 q20 23 35 37.5t25 14.5q12 0 19.5 -6.5t7.5 -24.5q0 -23 -15.5 -53.5t-38 -61t-48 -57.5t-48.5 -39q-33 -20 -74 -28.5t-88 -8.5q-72 0 -132 31t-104 87t-69 134t-25 170z" />
<glyph unicode="d" horiz-adv-x="989" d="M70 340q0 150 34.5 271.5t99 208.5t152.5 135.5t197 48.5q76 0 96 -33v391q0 47 -18.5 70.5t-42.5 23.5h-88q-37 0 -37 57q0 31 37 31h145q37 0 63.5 7.5t45 16.5t30 16t17.5 7q31 0 30 -35q0 -4 -3 -18t-7 -32.5t-7 -34t-3 -21.5q0 -18 -5 -161.5t-5 -446.5v-654 q0 -106 76 -106h49q35 0 35 -31q0 -35 -25 -45t-86 -10q-25 0 -57.5 1t-73.5 1q-70 0 -70 98v543q0 254 -147 254q-61 0 -111.5 -32t-86.5 -90t-55.5 -141t-19.5 -186q0 -160 40 -227t130 -67q27 0 52.5 9t46.5 31l69 78q12 12 31 13q29 0 29 -37q0 -61 -30 -111.5 t-76 -87.5t-99 -57.5t-98 -20.5q-53 0 -100.5 28t-81 78t-53 118.5t-19.5 148.5z" />
<glyph unicode="e" horiz-adv-x="864" d="M55 414q0 129 33 237.5t92.5 186t142.5 122t183 44.5q74 0 132 -32t99 -87.5t62.5 -130t21.5 -162.5q0 -23 -17.5 -40t-41.5 -17h-537q-2 -20 -2 -36v-26q0 -180 72 -275.5t215 -95.5q88 0 178 76q31 27 51.5 45.5t30.5 18.5q33 0 33 -29q0 -41 -27 -80 q-117 -166 -336 -166q-86 0 -157.5 34t-121.5 93.5t-78 141t-28 178.5zM229 625h72q113 0 181.5 2t105.5 10t49 22.5t12 38.5q0 35 -13 70t-35.5 63.5t-53.5 46t-66 17.5q-47 0 -92 -23.5t-80 -62.5t-57.5 -87t-22.5 -97z" />
<glyph unicode="f" horiz-adv-x="708" d="M63 49q0 41 58 41h39q70 0 76 35q4 35 6 67.5t2 65.5v616h-117q-57 0 -57 56q0 43 34 43h140l6 84q8 115 53 208t108.5 159.5t136.5 103.5t136 37q49 0 82 -29t33 -74q0 -31 -23.5 -51t-56.5 -20q-10 0 -27.5 5t-37 12t-37 12t-29.5 5q-92 0 -144.5 -88t-52.5 -227v-67.5 t4 -69.5h170q45 0 45 -39q0 -59 -57 -60h-158v-618q0 -31 1 -59.5t16.5 -51t52.5 -39t108 -22.5q47 -4 48 -35q0 -49 -48 -49h-467q-43 0 -43 49z" />
<glyph unicode="g" horiz-adv-x="933" d="M31 -219q0 45 17.5 84t46 66.5t65.5 44t76 16.5q37 0 36 -37q0 -8 -13 -19.5t-30.5 -31t-31 -48t-13.5 -69.5q0 -43 19.5 -82t51.5 -66.5t75 -44t92 -16.5q61 0 119.5 18.5t103.5 51.5t71.5 74.5t26.5 89.5q0 90 -62.5 144t-168.5 54h-143q-117 0 -181.5 53.5 t-64.5 147.5q0 35 10 66.5t39 54.5l72 59q-31 18 -58.5 48t-49 66t-34 76t-12.5 78q0 76 30 138.5t82 107.5t122.5 69.5t150.5 24.5q106 0 168 -38q10 20 26.5 50.5t41 59.5t60.5 49.5t83 20.5q80 0 80 -66q0 -76 -66 -76q-10 0 -35.5 7.5t-35.5 7.5q-45 0 -109 -88 q20 -10 42 -32t40 -50.5t29.5 -59t11.5 -59.5q0 -180 -101.5 -281.5t-281.5 -101.5q-68 0 -121 20l-39 -34q-20 -16 -20 -58q0 -102 174 -102h129q76 0 140.5 -21.5t110.5 -61.5t71.5 -100.5t25.5 -136.5q0 -84 -37 -149.5t-103.5 -110.5t-159.5 -67.5t-204 -22.5 q-172 0 -268 74t-96 209zM238 686q0 -248 215 -248q209 0 209 260q0 92 -60.5 150.5t-165.5 58.5q-35 0 -70.5 -19.5t-64.5 -50t-46 -70.5t-17 -81z" />
<glyph unicode="h" horiz-adv-x="1103" d="M8 1511q0 33 37 33h141q35 0 62.5 7.5t46 16.5t31 16t16.5 7q33 0 33 -35q0 -2 -3 -16t-7.5 -53t-8.5 -109.5t-4 -185.5l-2 -418q84 78 136.5 124t89 69.5t65.5 30t66 6.5q119 0 168 -77t51 -261l2 -453q0 -53 26.5 -92t67.5 -39h33q37 0 37 -25q0 -57 -48 -57h-368 q-47 0 -47 49q0 33 37 33h43q45 0 56 26.5t11 73.5v412q0 242 -151 242q-106 0 -271 -177v-454q0 -123 92 -123h31q37 0 37 -33q0 -49 -45 -49h-406q-47 0 -47 49q0 33 37 33h66q63 0 69 57q6 74 7.5 172.5t1.5 225.5v229t-1 200.5t-3.5 191.5t-6.5 204q-2 47 -18 70.5 t-43 23.5h-72q-45 0 -45 55z" />
<glyph unicode="i" horiz-adv-x="532" d="M27 49q0 33 36 33h66q66 0 70 43q4 90 7 154.5t3 105.5v395q0 94 -47 94h-88q-47 0 -47 60q0 39 36 39h130q33 0 60.5 7t48 16.5t32.5 17.5t16 8q33 0 33 -37q0 -10 -6 -47l-12 -59q-4 -16 -4.5 -96.5t-0.5 -227.5v-350q0 -59 20.5 -91t61.5 -32h43q35 0 35 -29 q0 -53 -45 -53h-401q-47 0 -47 49zM186 1448q0 53 32 93t77 40q84 0 84 -129q0 -55 -30 -94t-77 -39q-86 0 -86 129z" />
<glyph unicode="j" horiz-adv-x="579" d="M-197 -434q0 65 72 65h2q14 0 40 -4t54.5 -9t54 -9t37.5 -4q76 0 126.5 95t50.5 308v821q0 45 -56 45h-73q-66 0 -66 56q0 43 47 43h129q25 0 52.5 7t50 16.5t39 17.5t20.5 8q31 0 31 -37q0 -10 -3 -24.5t-6.5 -30t-7.5 -29.5t-4 -22q-2 -16 -3 -66.5t-1 -136.5 q0 -131 7 -274.5t7 -288.5q0 -223 -100 -389t-287 -234q-35 -10 -86 -10q-127 0 -127 86zM152 1448q0 55 33.5 94t74.5 39q84 0 84 -129q0 -59 -29.5 -96t-76.5 -37q-86 0 -86 129z" />
<glyph unicode="k" horiz-adv-x="1165" d="M10 49q0 33 37 33h78q63 0 68 43q6 80 8 216t2 329v315q0 41 -2 134t-6 243q-2 94 -64 94h-80q-37 0 -37 57q0 31 37 31h142q35 0 62.5 7.5t45.5 16.5t30.5 16t16.5 7q33 0 33 -35q0 -27 -4 -41t-9.5 -36.5t-9.5 -66.5t-4 -130v-737q18 12 162 149q80 78 122 117t42 47 q0 31 -39 31h-43q-49 0 -49 49q0 35 51 35h369q49 0 49 -31q0 -49 -49 -49h-31q-78 0 -135 -55q-23 -20 -87.5 -84t-183.5 -183l373 -381q53 -55 98.5 -79.5t79.5 -24.5h35q37 0 37 -27q0 -59 -68 -59h-317q-74 0 -74 39q0 12 8.5 19.5t19.5 13.5t19.5 12t8.5 16 q0 23 -30 53.5t-54 57.5l-258 262l-56 -49v-229q0 -113 92 -113h66q37 0 37 -33q0 -49 -47 -49h-445q-47 0 -47 49z" />
<glyph unicode="l" horiz-adv-x="610" d="M27 49q0 33 41 33h73q33 0 54.5 13.5t21.5 35.5q0 80 1 214t1 329v315q0 12 -2 104.5t-6 268.5q0 94 -53 94h-90q-37 0 -37 57q0 31 37 31h141q37 0 64.5 7.5t46 16.5t29.5 16t16 7q31 0 30 -35q0 -2 -3 -17t-6 -32.5t-5 -34t-2 -22.5q0 -14 -4 -127t-4 -293v-825 q0 -59 20.5 -91t61.5 -32h75q35 0 35 -33q0 -49 -49 -49h-446q-41 0 -41 49z" />
<glyph unicode="m" horiz-adv-x="1626" d="M23 938q0 35 36 35h119q23 0 48.5 5t47 12t39 12.5t23.5 5.5q33 0 33 -58v-55t-2 -129q184 238 321 238q45 0 79 -12.5t58.5 -38t42 -67.5t33.5 -102q213 219 322 220q236 0 235 -338v-459q0 -16 5 -38t15.5 -41t27 -32.5t38.5 -13.5h43q35 0 35 -25q0 -57 -45 -57h-379 q-37 0 -37 49q0 33 37 33h43q45 0 57.5 25.5t12.5 72.5q0 18 -1 39t-1 45v330q0 141 -36 191.5t-112 50.5q-35 0 -74.5 -16.5t-78.5 -57.5l-99 -100v-455q0 -18 4.5 -41t14.5 -41.5t25.5 -30.5t37.5 -12h43q37 0 37 -25q0 -57 -47 -57h-379q-37 0 -37 49q0 33 37 33h43 q61 0 66 43q6 98 6 133v336q0 137 -35 189.5t-119 52.5q-29 0 -61.5 -16.5t-69.5 -51.5l-108 -106v-457q0 -53 23.5 -88t55.5 -35h25q37 0 37 -33q0 -49 -47 -49h-389q-37 0 -37 49q0 33 37 33h65q63 0 68 43q6 90 8 154.5t2 105.5v344q0 51 -4 81t-13.5 45t-25.5 19.5 t-43 4.5h-59q-47 0 -47 59z" />
<glyph unicode="n" horiz-adv-x="1101" d="M37 49q0 33 37 33h65q63 0 68 43q2 18 3 53t3 74t3 76t1 57v389q0 106 -76 107h-59q-45 0 -45 57q0 35 37 35h114q53 0 94.5 17.5t51.5 17.5q35 0 35 -47v-195q213 238 346 238q225 0 225 -338v-461q0 -47 25.5 -85t60.5 -38h43q37 0 37 -25q0 -57 -47 -57h-379 q-37 0 -37 49q0 33 37 33h43q45 0 56.5 24.5t11.5 69.5v418q0 141 -35 191.5t-115 50.5q-18 0 -37.5 -2.5t-43 -13.5t-54.5 -34.5t-76 -66.5l-61 -57v-457q0 -59 20.5 -91t61.5 -32h43q37 0 36 -25q0 -57 -47 -57h-409q-37 0 -37 49z" />
<glyph unicode="o" horiz-adv-x="985" d="M72 403q0 135 32.5 246t93 190t146.5 122t195 43q178 0 269 -114t91 -325q0 -137 -30.5 -247.5t-89 -188.5t-140.5 -120t-186 -42q-86 0 -157 34t-121 93.5t-76.5 138t-26.5 170.5zM223 561q0 -467 291 -467q53 0 96 29t74 77t48.5 111.5t17.5 132.5q0 453 -271 453 q-55 0 -101 -25.5t-81 -69.5t-54.5 -105.5t-19.5 -135.5z" />
<glyph unicode="p" horiz-adv-x="1026" d="M35 936q0 37 39 37h125q18 0 40.5 6t44 12t37 12.5t17.5 6.5q47 0 47 -52v-98q35 59 102.5 101.5t141.5 42.5q172 0 261 -104.5t89 -291.5q0 -145 -29.5 -262t-88 -200t-142.5 -127t-193 -44q-18 0 -39.5 7.5t-39 18.5t-29.5 25.5t-12 30.5q0 35 13 71t36 36 q4 0 19 -10.5t36.5 -21.5t44.5 -21.5t41 -10.5q100 0 157.5 126t57.5 343q0 322 -182 322q-117 0 -183.5 -118t-66.5 -329v-727q0 -61 30.5 -92t94.5 -41l39 -6q51 -8 75.5 -9t24.5 -26q0 -47 -33 -47h-526q-35 0 -35 47q0 18 28.5 23.5t63.5 11.5q27 4 47.5 13.5t24.5 27.5 q14 63 14 240v440v109.5t-1 158.5t-1 161v114q0 23 -15 27.5t-83 4.5h-43q-49 0 -49 62z" />
<glyph unicode="q" horiz-adv-x="921" d="M66 340q0 143 35.5 265t101 210t158 138.5t206.5 50.5q82 0 142 -50l26 78q10 27 23.5 40t23.5 13q41 0 41 -63q0 -43 -2 -111.5t-6 -151.5t-7 -171t-7 -170t-6 -150.5t-2 -111.5q0 -25 -1 -77t-2.5 -109.5t-2.5 -110t-1 -76.5q0 -70 7.5 -111t22.5 -62.5t36.5 -28.5 t52.5 -7q49 0 49 -31q0 -47 -34 -47h-482q-35 0 -35 47q0 20 12.5 25.5t67.5 5.5q137 0 142 92q14 522 16 522q0 16 1 72.5t1 124.5t1 131.5t1 91.5q0 279 -133 279q-63 0 -116.5 -34t-92.5 -90t-61.5 -132t-22.5 -162q0 -311 191 -311q53 0 127 82q37 43 49 43q29 0 28 -33 q0 -49 -24.5 -100.5t-64.5 -91.5t-93 -65.5t-110 -25.5q-55 0 -102.5 31t-81.5 82t-53 118.5t-19 141.5z" />
<glyph unicode="r" horiz-adv-x="827" d="M49 932q0 41 41 41h129q49 0 76 5t40 12t21.5 12.5t20.5 5.5q33 0 33 -37q0 -4 -3.5 -18.5t-6.5 -33t-7 -34t-4 -21.5q-2 -8 -2 -32.5t-2 -67.5q25 29 59.5 69.5t75.5 78.5t84 65t82 27q53 0 89 -31t36 -84q0 -100 -76 -101q-10 0 -28.5 7.5t-38 15.5t-37 15.5t-29.5 7.5 q-94 0 -217 -197v-432q0 -59 21.5 -91t62.5 -32h43q35 0 35 -29q0 -53 -47 -53h-400q-49 0 -49 49q0 33 39 33h66q49 0 67 55q12 37 13 248v363q0 76 -25 104.5t-84 28.5h-37q-41 0 -41 51z" />
<glyph unicode="s" horiz-adv-x="702" d="M43 127q0 59 76 59q37 0 57.5 -21.5t38.5 -48t41 -48t63 -21.5q70 0 114 49t44 113q0 45 -55 108.5t-156 141.5q-96 74 -142 144.5t-46 148.5q0 115 87 183.5t232 68.5q43 0 84 -10.5t73 -28t50.5 -39t18.5 -45.5q0 -76 -68 -76q-39 0 -60.5 16.5t-39 36t-35 35.5 t-47.5 16q-66 0 -105 -28.5t-39 -85.5q0 -49 42 -102.5t114 -106.5q252 -195 252 -340q0 -279 -336 -279q-53 0 -99 12.5t-82 34t-56.5 50t-20.5 63.5z" />
<glyph unicode="t" horiz-adv-x="661" d="M29 915q0 57 65 58h72q-2 49 -2 89v71q0 63 21.5 99t49 52t51 20.5t29.5 4.5q25 0 25 -39q0 -14 -1 -55t-2 -88.5t-2 -90.5t-1 -63h205q29 0 28 -33q0 -66 -53 -66h-180q0 -6 -1 -55t-2 -118.5t-3 -151.5t-3 -152.5t-2 -121t-1 -58.5q0 -121 75 -121q25 0 46.5 9.5 t42 19.5t40 19.5t35.5 9.5q27 0 27 -29q0 -25 -25.5 -51.5t-65.5 -49t-88.5 -37t-93.5 -14.5q-139 0 -139 183l-4 718h-98q-45 0 -45 41z" />
<glyph unicode="u" horiz-adv-x="1110" d="M29 938q0 35 37 35h116q20 0 44 5t43.5 12t34.5 12.5t22 5.5q37 0 36 -47v-590q0 -72 7.5 -118t24 -74.5t42 -40t64.5 -11.5q139 0 280 176v485q0 92 -55 93h-80q-45 0 -45 57q0 35 37 35h117q18 0 41.5 5t44 12t37 12.5t20.5 5.5q37 0 37 -47v-795q0 -84 47 -84h53 q25 0 31 -3t6 -26q0 -53 -37 -53h-73q-53 0 -92.5 -9t-51.5 -9q-37 0 -37 47v170q-25 -25 -59.5 -65t-75.5 -78t-88 -66.5t-96 -28.5q-252 0 -252 330v493q0 96 -66 97h-69q-45 0 -45 57z" />
<glyph unicode="v" horiz-adv-x="1200" d="M18 946q0 35 54 35h325q55 0 56 -31q0 -18 -12.5 -30.5t-27 -20.5t-26.5 -15t-12 -18q0 -14 6 -35.5t8 -25.5q4 -14 16.5 -54t35 -113t55 -183.5t79.5 -266.5l218 555q6 16 14 46t8 53q0 18 -17.5 27.5t-37 17.5t-36.5 18t-17 29q0 25 16 32t78 7h256q45 0 45 -29 q0 -25 -18.5 -34t-47.5 -15q-35 -8 -54 -26.5t-30 -39.5q-6 -12 -29.5 -67t-56 -134t-69.5 -169t-70 -171t-56.5 -142.5t-29.5 -82.5q-8 -27 -14 -55t-33 -28h-70q-18 0 -29.5 34.5t-21.5 69.5l-223 682q-16 45 -34.5 69.5t-42 37t-52.5 15.5t-64 9q-39 6 -39 49z" />
<glyph unicode="w" horiz-adv-x="1550" d="M12 932q0 25 12.5 33t47.5 8h276q39 0 51.5 -10.5t12.5 -26.5t-10.5 -24.5t-26.5 -14.5t-26.5 -13t-10.5 -20q0 -10 6 -36.5t21 -86.5l127 -561l243 543q-2 8 -12 41t-22.5 70.5t-22.5 71.5t-10 42q0 6 15 12.5t38.5 11.5t49.5 7t44 2q14 0 21.5 -10t11.5 -28.5t8 -45.5 t14 -57q6 -23 62.5 -185.5t161.5 -474.5l143 578q10 41 17.5 72.5t7.5 41.5q0 18 -21.5 25.5t-48.5 9.5q-57 2 -57 31q0 35 49 35h311q49 0 49 -31q0 -25 -17.5 -30t-41.5 -9q-25 -4 -50.5 -16.5t-35.5 -44.5l-260 -836q-10 -25 -25 -24h-82q-14 0 -25.5 23.5t-19.5 45.5 l-192 545l-254 -551q-6 -23 -11.5 -44t-21.5 -21h-70q-25 0 -35 23.5t-18 51.5l-172 660q-43 168 -109 174l-38 4q-53 6 -54 39z" />
<glyph unicode="x" horiz-adv-x="1150" d="M47 45q0 25 45 32t123 36q29 12 62.5 48t74.5 93l162 227l-149 246q-16 29 -34 57.5t-40 59.5q-12 18 -47 30.5t-90 12.5q-25 0 -43.5 16.5t-18.5 34.5q0 35 47 35h342q49 0 49 -33q0 -23 -12 -33t-27.5 -15t-27.5 -10t-12 -18q0 -6 10 -24.5t25.5 -43t32 -51t30.5 -47.5 l59 -90l111 176q20 33 37.5 58.5t17.5 34.5q0 14 -12 17t-25.5 6t-26 10.5t-12.5 31.5q0 31 50 31h303q45 0 45 -31q0 -18 -8.5 -27.5t-27 -14.5t-48 -10t-70.5 -13q-41 -10 -73.5 -42t-65.5 -83l-141 -226l253 -362q27 -39 62 -53.5t65 -20.5q31 -6 52.5 -12t23.5 -27 q0 -51 -57 -51h-322q-49 0 -49 41q0 25 12.5 32t27.5 10t27.5 7t12.5 21q0 14 -41 73l-158 215l-102 -143q-47 -66 -69.5 -102.5t-22.5 -44.5q0 -14 12 -19.5t29 -9.5q16 -4 28.5 -11.5t12.5 -23.5q0 -45 -62 -45h-311q-39 0 -39 45z" />
<glyph unicode="y" horiz-adv-x="1179" d="M43 934q0 39 51 39h357q45 0 45 -33q0 -29 -14.5 -40t-30.5 -17q-18 -6 -34 -12.5t-16 -24.5q0 -6 2.5 -12.5t8.5 -26t19 -59t35.5 -113.5t57.5 -187.5t84 -281.5l209 577q16 43 24.5 69t8.5 34q0 23 -22.5 28t-49.5 9q-25 4 -45 14t-20 39q0 37 45 37h336q49 0 49 -39 q0 -25 -21.5 -29t-52.5 -14q-29 -10 -61.5 -35t-55.5 -88l-290 -788q-14 -35 -36 -122t-57 -229q-10 -39 -16 -61.5t-19.5 -37.5t-38 -25.5t-69.5 -22.5q-41 -12 -69.5 -17.5t-51.5 -5.5q-51 0 -51 35q0 14 37 45t84 90q23 31 46 69t40 87l69 199l-286 815q-31 86 -105 86 h-57q-39 0 -39 49z" />
<glyph unicode="z" horiz-adv-x="884" d="M59 35q0 6 19.5 31.5t44 54.5t46 54.5t28.5 33.5q76 111 178 271.5t237 381.5h-250q-72 0 -118.5 -44t-77.5 -105q-25 -49 -57 -49q-35 0 -35 34q0 6 8 31t18.5 53.5t19.5 55t11 32.5q4 18 8 39t9.5 38.5t13.5 28.5t20 11q6 0 16.5 -2t39.5 -6q33 -6 59 -6h477 q47 0 47 -29q0 -14 -22 -49q-98 -160 -222 -357.5t-278 -437.5h213q141 0 233 154q37 61 68 61q45 0 45 -30q0 -16 -29.5 -83t-89.5 -202h-428q-18 0 -45.5 -1t-58.5 -2t-58.5 -2t-46.5 -1q-43 0 -43 41z" />
<glyph unicode="{" horiz-adv-x="958" d="M125 614v74q102 0 168.5 58.5t93.5 179.5q23 111 37 220t41 218q29 121 105.5 179.5t193.5 58.5h102v-31q-82 0 -140 -56.5t-77 -173.5l-71 -432q-20 -121 -88 -182t-164 -72q104 -29 173.5 -106.5t84.5 -208.5l45 -444q10 -113 62 -169.5t134 -56.5h41v-30h-123 q-117 0 -199.5 61t-99.5 193l-63 468q-16 129 -85 190.5t-171 61.5z" />
<glyph unicode="|" horiz-adv-x="958" d="M416 -360v1962h131v-1962h-131z" />
<glyph unicode="}" horiz-adv-x="958" d="M125 -330h41q82 0 134 56.5t62 169.5l46 444q14 131 83.5 209t174.5 106q-96 10 -161 71.5t-91 182.5q-23 109 -36 216.5t-36 215.5q-47 229 -217 230v31h102q117 0 194 -58.5t105 -179.5q27 -109 41.5 -218.5t36.5 -219.5q25 -121 92.5 -179.5t169.5 -58.5v-74 q-102 0 -170.5 -61t-85.5 -191l-63 -468q-16 -131 -99 -192.5t-200 -61.5h-123v30z" />
<glyph unicode="~" d="M74 340q0 309 239 309q45 0 105.5 -24.5t144.5 -71.5q80 -47 131 -69.5t84 -22.5q57 0 86 42t29 146h53q0 -96 -11 -156.5t-36 -94t-60.5 -46t-84.5 -12.5q-66 0 -123.5 25.5t-126.5 74.5q-72 51 -121 75t-74 24q-98 0 -140 -47.5t-42 -151.5h-53z" />
<glyph unicode="&#xa1;" horiz-adv-x="784" d="M270 860q0 63 39 103.5t105 40.5q47 0 72.5 -32t25.5 -81q0 -59 -37 -104.5t-98 -45.5q-106 0 -107 119zM328 -492q0 164 2 286t6 216q2 84 7 151.5t10 127t11.5 116t12.5 117.5q2 35 26 35q29 0 35 -57q8 -90 18.5 -212t22.5 -278q2 -41 7.5 -98t10.5 -111.5t8 -98.5 t3 -56q0 -61 -24.5 -96t-53.5 -54q-35 -22 -78 -28q-14 0 -19 14t-5 26z" />
<glyph unicode="&#xa2;" horiz-adv-x="729" d="M63 367q0 119 24 222t68 183t108.5 134.5t144.5 78.5v223q0 66 41 66q37 0 36 -66v-207q12 2 22.5 2.5t22.5 0.5q59 0 106.5 -36t47.5 -83q0 -80 -63 -80q-18 0 -36 11t-35.5 24.5t-33.5 26t-31 14.5v-754q14 4 40 24.5t53.5 44t50 43t33.5 19.5q25 0 24 -37 q0 -18 -15.5 -51t-42 -68.5t-63.5 -68.5t-80 -49v-158q0 -66 -34 -66q-43 0 -43 66v139q-8 -2 -16.5 -2h-16.5q-68 0 -124 32t-98 87t-66 128t-24 157zM236 498q0 -340 172 -371v737q-80 -31 -126 -131t-46 -235z" />
<glyph unicode="&#xa3;" horiz-adv-x="1128" d="M129 702q0 37 37 37h133q0 14 -1 34t-1 48q0 106 38 197.5t130 179.5q152 145 319 145q72 0 121 -28.5t49 -79.5q0 -86 -82 -86q-25 0 -46 13.5t-42.5 30.5t-46 30.5t-55.5 13.5q-98 0 -149.5 -77t-51.5 -199q0 -68 41 -222h193q43 0 43 -43q0 -20 -15.5 -36.5 t-35.5 -16.5h-170q4 -29 6 -55.5t2 -55.5q0 -135 -21.5 -217t-62.5 -133q43 16 74.5 20.5t50.5 4.5q18 0 50 -8.5t64.5 -17.5t62.5 -16t46 -7q49 0 74.5 15t48.5 58q12 25 31 25q20 0 20 -37q0 -63 -21.5 -115.5t-35.5 -72.5q-45 -59 -160 -60q-49 0 -106.5 19.5t-108.5 43 t-90 43t-53 21.5q-150 -121 -195 -121q-63 0 -63 62q0 20 26.5 39.5t58 34t59.5 23.5t32 11q63 45 63 146q0 41 -12 99.5t-26.5 113.5t-27 95t-12.5 42h-131q-51 0 -51 59z" />
<glyph unicode="&#xa4;" horiz-adv-x="1187" d="M109 315l129 129q-37 53 -60.5 122t-23.5 145q0 154 92 268l-137 137l86 84l135 -135q53 43 121.5 66.5t140.5 23.5q76 0 144.5 -23.5t121.5 -66.5l135 135l84 -86l-133 -137q41 -55 64.5 -123t23.5 -143q0 -74 -23.5 -142.5t-62.5 -122.5l131 -131l-84 -84l-131 129 q-53 -45 -122.5 -69.5t-147.5 -24.5q-158 0 -270 92l-127 -127zM270 711q0 -70 23.5 -129.5t66.5 -104.5t101.5 -70.5t130.5 -25.5q70 0 129 25.5t102 69.5t67.5 104.5t24.5 130.5q0 68 -23.5 128t-66.5 105t-102 70.5t-131 25.5t-130.5 -25.5t-101.5 -70.5t-66.5 -105.5 t-23.5 -127.5z" />
<glyph unicode="&#xa5;" horiz-adv-x="1462" d="M109 1305q0 35 53 34h375q55 0 55 -30q0 -20 -14.5 -31.5t-32.5 -22.5l-38 -19t-18 -22q0 -2 8.5 -18t37.5 -70l221 -409l223 383q51 90 51 104q0 25 -20.5 34t-46.5 15q-27 6 -49.5 14.5t-22.5 32.5q0 39 123 39h272q45 0 45 -26q0 -25 -21.5 -36t-49.5 -22 q-27 -10 -52.5 -23t-40.5 -40q-6 -10 -19 -29.5t-32 -52.5l-303 -518v-119h209q45 0 45 -39q0 -57 -57 -57h-197v-35q0 -104 11.5 -168.5t72.5 -75.5q12 0 33.5 -2t43 -7t38 -13t16.5 -21q0 -55 -53 -55h-494q-59 0 -59 51q0 31 26.5 33t61.5 4q37 2 70.5 20.5t37.5 86.5 q2 41 3.5 69.5t1.5 44.5v68h-201q-55 0 -55 53q0 43 32 43h224v119l-281 524q-20 39 -35.5 63.5t-28 38t-25.5 19.5t-28 10q-14 4 -32.5 5t-45.5 5q-39 6 -38 48z" />
<glyph unicode="&#xa6;" horiz-adv-x="958" d="M416 -360v870h131v-870h-131zM416 731v871h131v-871h-131z" />
<glyph unicode="&#xa7;" horiz-adv-x="1204" d="M244 1053q0 94 29.5 175t84 138t130 90t165.5 33q63 0 122 -18.5t104 -50t71.5 -74.5t26.5 -93q0 -127 -111 -127q-78 0 -78 78q0 14 15.5 44t15.5 46q0 55 -42 93t-113 38q-135 0 -208 -104t-73 -285q0 -180 145 -397q70 -104 110 -168.5t54 -91.5q41 -82 61.5 -165 t20.5 -169q0 -145 -49 -145q-14 0 -14 41v26.5t2 20.5q0 8 2 16q0 63 -24.5 130t-62.5 135.5t-86 138t-96 139.5q-104 156 -153 281.5t-49 224.5zM254 -119q0 127 108 127q78 0 78 -78q0 -8 -5 -20t-10 -25.5t-10 -26t-5 -18.5q0 -59 45 -95t110 -36q63 0 115.5 24.5 t89.5 69.5t56.5 107.5t19.5 138.5q0 78 -23.5 156t-65.5 164t-99.5 183t-125.5 214q-41 70 -56 146.5t-15 154.5q0 147 49 147q8 0 10 -13t2 -32q0 -16 -1 -33.5t-1 -27.5q0 -61 20.5 -132t71.5 -142l166 -240q63 -92 104.5 -163t64 -129t30.5 -110.5t8 -109.5 q0 -96 -29.5 -176t-84 -137.5t-130 -90t-166.5 -32.5q-66 0 -123 17.5t-102 49t-70.5 74.5t-25.5 94z" />
<glyph unicode="&#xa8;" horiz-adv-x="1024" d="M229 1245q0 47 29 82t76 35q80 0 80 -92q0 -111 -109 -111q-76 0 -76 86zM608 1245q0 47 29 82t76 35q80 0 80 -92q0 -111 -109 -111q-76 0 -76 86z" />
<glyph unicode="&#xa9;" horiz-adv-x="2048" d="M268 694q0 154 58.5 289t159 235.5t235.5 159t289 58.5t289 -58.5t235 -159t158.5 -235.5t58.5 -289t-58.5 -287t-158.5 -233t-235.5 -157.5t-288.5 -57.5q-154 0 -289 57.5t-235.5 157.5t-159 233t-58.5 287zM385 696q0 -133 48 -248.5t133 -201.5t199 -136.5t247 -50.5 q131 0 245.5 50.5t199.5 136.5t133 201.5t48 248.5q0 131 -48 248t-133 204t-199.5 137t-245.5 50q-133 0 -247 -50t-199 -137t-133 -204t-48 -248zM674 696q0 205 104.5 304.5t270.5 99.5q8 0 24.5 -3t34.5 -6.5t35.5 -6.5t25.5 -3q14 0 27 13q6 6 16 6q20 0 24.5 -26.5 t20.5 -92.5q4 -20 7.5 -35.5t3.5 -30.5q0 -35 -21 -34q-6 0 -17 14t-23.5 31.5l-25 35t-22.5 23.5q-59 39 -123 39q-49 0 -91 -24.5t-72.5 -66.5t-48 -97.5t-17.5 -116.5q0 -154 74.5 -242t214.5 -88q53 0 112 35q27 16 37 16q31 0 31 -24q0 -18 -23 -41q-71 -70 -221 -70 q-74 0 -139.5 26.5t-113.5 78t-76.5 124t-28.5 162.5z" />
<glyph unicode="&#xaa;" horiz-adv-x="802" d="M78 950q0 121 145 195q16 10 81 32.5t173 59.5q4 16 5 45t1 68q0 135 -104 135q-111 0 -150 -127q-12 -45 -69 -45q-49 0 -49 47q0 33 29.5 69.5t74.5 67.5t95 51.5t93 20.5q111 0 160 -62.5t49 -214.5q0 -23 -3 -68.5t-6 -96t-6 -96.5t-3 -70q0 -47 45 -48 q10 0 29.5 11.5t29.5 11.5q27 0 27 -25q0 -14 -15.5 -28.5t-37 -26.5t-45 -19.5t-39.5 -7.5q-119 0 -119 129q0 100 6 216l-168 -68q-100 -55 -100 -127q0 -29 23.5 -50.5t52.5 -21.5q16 0 40.5 7.5t49.5 17.5q29 10 59 26q23 0 23 -20q0 -27 -22.5 -48.5t-56.5 -36.5 t-74 -23.5t-73 -8.5q-66 0 -108.5 35t-42.5 94zM127 612q0 33 20.5 48.5t49.5 15.5h395q98 0 98 -49q0 -57 -88 -58h-391q-84 0 -84 43z" />
<glyph unicode="&#xab;" horiz-adv-x="1073" d="M188 506q0 80 105 170q8 8 51 37.5t121 83.5q55 37 78 37q35 0 35 -37q0 -10 -105 -121q-104 -111 -104 -164q0 -59 86 -154l112 -127q4 -4 10.5 -13t6.5 -17q0 -12 -9.5 -21.5t-19.5 -9.5q-31 0 -94 45l-172 121q-53 39 -77 83t-24 87zM536 506q0 80 105 170 q8 8 51 37.5t121 83.5q55 37 78 37q35 0 35 -37q0 -10 -105 -121q-104 -111 -104 -164q0 -59 86 -154l112 -127q4 -4 10.5 -13t6.5 -17q0 -12 -9.5 -21.5t-19.5 -9.5q-31 0 -94 45l-172 121q-53 39 -77 83t-24 87z" />
<glyph unicode="&#xac;" d="M104 582v98h777v-418h-109v320h-668z" />
<glyph unicode="&#xad;" horiz-adv-x="751" d="M102 492q0 98 86 114l398 66q6 2 20 2q51 0 51 -49q0 -92 -59 -101l-426 -69q-6 -2 -22 -2q-47 0 -48 39z" />
<glyph unicode="&#xae;" horiz-adv-x="2048" d="M268 694q0 154 58.5 289t159 235.5t235.5 159t289 58.5t289 -58.5t235 -159t158.5 -235.5t58.5 -289t-58.5 -287t-158.5 -233t-235.5 -157.5t-288.5 -57.5q-154 0 -289 57.5t-235.5 157.5t-159 233t-58.5 287zM385 696q0 -133 48 -248.5t133 -201.5t199 -136.5t247 -50.5 q131 0 245.5 50.5t199.5 136.5t133 201.5t48 248.5q0 131 -48 248t-133 204t-199.5 137t-245.5 50q-133 0 -247 -50t-199 -137t-133 -204t-48 -248zM655 358q0 23 33 23h19q47 0 51 55q2 25 4 53.5t2 77.5v271q0 57 -1 95t-7 61.5t-20.5 32.5t-39.5 9q-41 0 -41 25 q0 31 35 31h115q10 0 32.5 1t46 2t46 2t33.5 1q66 0 122 -9.5t98 -32t65.5 -61.5t23.5 -96q0 -86 -51.5 -133t-137.5 -68q41 -12 70 -27.5t51.5 -41t40 -61.5t35.5 -87q16 -49 48 -82.5t67 -33.5q33 0 32 -21q0 -10 -18 -20.5t-31 -10.5q-53 0 -94 10.5t-71.5 34t-53 62.5 t-43.5 94q-14 39 -23.5 68.5t-21.5 49t-30.5 30t-53.5 10.5q-68 0 -67 33q0 27 61 26q86 0 117.5 48t31.5 114q0 74 -32.5 106.5t-104.5 32.5t-92 -37t-20 -123v-403q0 -45 17 -62.5t38.5 -22.5t39 -7t17.5 -17q0 -31 -30 -30h-273q-35 0 -35 28z" />
<glyph unicode="&#xaf;" horiz-adv-x="1024" d="M186 1223q10 57 56 57h456q70 0 70 -49q0 -72 -72 -72h-442q-33 0 -50.5 21.5t-17.5 42.5z" />
<glyph unicode="&#xb0;" horiz-adv-x="653" d="M123 1268q0 86 58.5 145.5t144.5 59.5t145 -59.5t59 -145.5t-59 -144.5t-145 -58.5t-144.5 58.5t-58.5 144.5zM227 1270q0 -43 28 -74t71 -31t70.5 31t27.5 74t-27.5 73.5t-70.5 30.5t-71 -30.5t-28 -73.5z" />
<glyph unicode="&#xb1;" d="M141 2v152h738v-152h-738zM141 604v152h281v315h166v-315h291v-152h-291v-315h-166v315h-281z" />
<glyph unicode="&#xb2;" horiz-adv-x="790" d="M102 635q0 14 17.5 40.5t48.5 61.5t71 78t83 90q82 90 122.5 174t40.5 170q0 143 -131 144q-47 0 -65.5 -23.5t-30.5 -51.5t-28.5 -51.5t-55.5 -23.5q-61 0 -61 66q0 39 21.5 71.5t57 57t83 38t96.5 13.5q121 0 194.5 -62.5t73.5 -177.5q0 -135 -96 -256 q-23 -27 -88.5 -87t-178.5 -187h248q41 0 61.5 19.5t43.5 86.5q12 39 30 39q29 0 29 -30q0 -10 -1 -19.5t-3 -19.5q-4 -35 -9 -67t-5 -66q0 -47 -2 -56.5t-19 -9.5h-452q-10 0 -28.5 -5t-27.5 -5q-39 0 -39 49z" />
<glyph unicode="&#xb3;" horiz-adv-x="737" d="M102 600q0 43 54 43q70 0 129 18.5t103 52.5t69.5 81t25.5 102q0 41 -16 67.5t-42 42t-59.5 20.5t-68.5 5h-33q-18 0 -34.5 15.5t-16.5 31.5q0 25 43 37q193 45 193 184q0 39 -41 70t-89 31q-23 0 -42 -12.5t-38.5 -25.5t-38 -25.5t-36.5 -12.5q-55 0 -55 45q0 53 58 86 t152 33q117 0 189 -47t72 -133q0 -156 -131 -203q84 -10 135 -66.5t51 -142.5q0 -80 -34 -143.5t-95.5 -107.5t-148.5 -67.5t-193 -23.5q-61 0 -62 45z" />
<glyph unicode="&#xb4;" horiz-adv-x="1024" d="M418 1176q0 20 43 245q23 115 33 173.5t16 66.5q23 39 96 39q47 0 47 -31q0 -4 -8 -30.5t-22.5 -68.5t-32 -91t-35.5 -97.5t-34.5 -91.5t-26.5 -67q-29 -66 -62 -66q-14 0 -14 19z" />
<glyph unicode="&#xb5;" horiz-adv-x="1110" d="M29 938q0 35 37 35h116q20 0 44 5t43.5 12t34.5 12.5t22 5.5q37 0 36 -47v-631q0 -203 138 -203q139 0 280 176v485q0 92 -55 93h-80q-45 0 -45 57q0 35 37 35h117q18 0 41.5 5t44 12t37 12.5t20.5 5.5q37 0 37 -47v-795q0 -84 47 -84h53q25 0 31 -3t6 -26q0 -53 -37 -53 h-73q-53 0 -92.5 -9t-51.5 -9q-37 0 -37 47v170q-25 -25 -59.5 -65t-75.5 -78t-88 -66.5t-96 -28.5q-53 0 -99 16v-264q0 -100 82 -100h43q35 0 35 -25q0 -57 -45 -57h-381q-37 0 -37 47q0 35 37 35h43q57 0 60 43q4 76 6 131t4 100t2 85v87v725q0 96 -68 97h-69 q-45 0 -45 57z" />
<glyph unicode="&#xb6;" horiz-adv-x="1204" d="M92 1012q0 201 150.5 336t431.5 188v-1044q-293 78 -437.5 213t-144.5 307zM545 -272v723l131 -62v-682zM772 -307v1861l363 50v-109h-160v-1743h160v-106z" />
<glyph unicode="&#xb7;" horiz-adv-x="751" d="M268 731q0 63 39 107.5t99 44.5q104 0 104 -119q0 -66 -39 -105.5t-102 -39.5q-45 0 -73 32.5t-28 79.5z" />
<glyph unicode="&#xb8;" horiz-adv-x="1024" d="M383 -467q0 12 19.5 26.5t44 29t46 24.5t25.5 14q41 35 41 90q0 96 -127 121q-35 6 -35 23q0 4 2 13t2 15l50 123h73l-49 -116q18 6 45 6q172 0 172 -148q0 -55 -21.5 -100t-58.5 -77t-88 -50.5t-108 -18.5q-33 0 -33 25z" />
<glyph unicode="&#xb9;" horiz-adv-x="727" d="M102 635q0 35 41 35h68q25 0 42 5t28.5 21.5t17.5 49t6 85.5v496q0 41 -53 41h-70q-41 0 -41 43q0 41 41 41h117q35 0 55.5 4t33.5 10.5t20.5 10.5t15.5 4q37 0 37 -35q0 4 -8.5 -33t-8.5 -135v-541q0 -37 28 -47t61.5 -14t62.5 -10.5t29 -30.5q0 -43 -41 -43h-441 q-41 0 -41 43z" />
<glyph unicode="&#xba;" horiz-adv-x="802" d="M74 1126q0 98 24.5 179t70.5 139.5t112.5 90.5t150.5 32q139 0 218 -87t79 -233q0 -98 -25.5 -178t-72.5 -137.5t-113.5 -88t-148.5 -30.5q-68 0 -122 24.5t-92 66.5t-59.5 99.5t-21.5 122.5zM127 612q0 33 20.5 48.5t49.5 15.5h395q98 0 98 -49q0 -57 -88 -58h-391 q-84 0 -84 43zM209 1245q0 -154 53.5 -245t153.5 -91q43 0 75.5 20.5t55 54.5t34 80t11.5 95q0 324 -203 324q-82 0 -131 -68.5t-49 -169.5z" />
<glyph unicode="&#xbb;" horiz-adv-x="1073" d="M158 203v14l127 141q86 94 86 154q0 53 -104 164t-105 121q0 37 35 37q25 0 78 -37q78 -53 120 -83t52 -38q104 -90 104 -170q0 -43 -23.5 -87t-76.5 -83l-172 -121q-63 -45 -94 -45q-16 0 -21.5 8t-5.5 25zM512 203v14l127 141q86 94 86 154q0 53 -104 164t-105 121 q0 37 35 37q25 0 78 -37q78 -53 120 -83t52 -38q104 -90 104 -170q0 -43 -23.5 -87t-76.5 -83l-172 -121q-63 -45 -94 -45q-16 0 -21.5 8t-5.5 25z" />
<glyph unicode="&#xbc;" horiz-adv-x="1785" d="M129 635q0 35 41 35h68q25 0 42 5t28.5 21.5t17.5 49t6 85.5v496q0 41 -53 41h-70q-41 0 -41 43q0 41 41 41h117q35 0 55.5 4t33.5 10.5t20.5 10.5t15.5 4q37 0 37 -35q0 4 -8.5 -33t-8.5 -135v-541q0 -37 28 -47t61.5 -14t62.5 -10.5t29 -30.5q0 -43 -41 -43h-441 q-41 0 -41 43zM490 -74q0 20 16 68l524 1452q18 51 66 51q49 0 49 -53q0 -14 -8 -37l-539 -1493q-14 -33 -49 -33q-59 0 -59 45zM875 264q0 4 32 49l361 543q29 41 49 41h33q25 0 24 -41v-510h15q70 0 92 47q14 29 20 46.5t25 17.5q16 0 21 -5.5t5 -21.5q0 -6 -1 -12t-3 -17 q-6 -29 -7 -58.5t-6 -53t-20.5 -39t-48.5 -15.5h-92v-88q0 -29 24.5 -48t59.5 -19h37q37 0 37 -33q0 -43 -37 -43h-389q-37 0 -37 43q0 33 37 33h23q31 0 50 10t29.5 25.5t13.5 35t3 39.5v45h-260q-2 0 -24.5 -3t-31.5 -3q-35 0 -34 35zM1012 346h213v336z" />
<glyph unicode="&#xbd;" horiz-adv-x="1785" d="M122 635q0 35 41 35h68q25 0 42 5t28.5 21.5t17.5 49t6 85.5v496q0 41 -53 41h-70q-41 0 -41 43q0 41 41 41h117q35 0 55.5 4t33.5 10.5t20.5 10.5t15.5 4q37 0 37 -35q0 4 -8.5 -33t-8.5 -135v-541q0 -37 28 -47t61.5 -14t62.5 -10.5t29 -30.5q0 -43 -41 -43h-441 q-41 0 -41 43zM504 -74q0 20 16 68l524 1452q18 51 66 51q49 0 49 -53q0 -14 -8 -37l-539 -1493q-14 -33 -49 -33q-59 0 -59 45zM1042 43q0 14 17.5 40.5t48.5 61.5t71 78t83 90q82 90 122.5 174t40.5 170q0 143 -131 144q-47 0 -65.5 -23.5t-30.5 -51.5t-28.5 -51.5 t-55.5 -23.5q-61 0 -61 66q0 39 21.5 71.5t57 57t83 38t96.5 13.5q121 0 194.5 -62.5t73.5 -177.5q0 -135 -96 -256q-23 -27 -88.5 -87t-178.5 -187h248q41 0 61.5 19.5t43.5 86.5q12 39 30 39q29 0 29 -30q0 -10 -1 -19.5t-3 -19.5q-4 -35 -9 -67t-5 -66q0 -47 -2 -56.5 t-19 -9.5h-452q-10 0 -28.5 -5t-27.5 -5q-39 0 -39 49z" />
<glyph unicode="&#xbe;" horiz-adv-x="1785" d="M155 600q0 43 54 43q70 0 129 18.5t103 52.5t69.5 81t25.5 102q0 41 -16 67.5t-42 42t-59.5 20.5t-68.5 5h-33q-18 0 -34.5 15.5t-16.5 31.5q0 25 43 37q193 45 193 184q0 39 -41 70t-89 31q-23 0 -42 -12.5t-38.5 -25.5t-38 -25.5t-36.5 -12.5q-55 0 -55 45q0 53 58 86 t152 33q117 0 189 -47t72 -133q0 -156 -131 -203q84 -10 135 -66.5t51 -142.5q0 -80 -34 -143.5t-95.5 -107.5t-148.5 -67.5t-193 -23.5q-61 0 -62 45zM549 -74q0 20 16 68l524 1452q18 51 66 51q49 0 49 -53q0 -14 -8 -37l-539 -1493q-14 -33 -49 -33q-59 0 -59 45z M961 264q0 4 32 49l361 543q29 41 49 41h33q25 0 24 -41v-510h15q70 0 92 47q14 29 20 46.5t25 17.5q16 0 21 -5.5t5 -21.5q0 -6 -1 -12t-3 -17q-6 -29 -7 -58.5t-6 -53t-20.5 -39t-48.5 -15.5h-92v-88q0 -29 24.5 -48t59.5 -19h37q37 0 37 -33q0 -43 -37 -43h-389 q-37 0 -37 43q0 33 37 33h23q31 0 50 10t29.5 25.5t13.5 35t3 39.5v45h-260q-2 0 -24.5 -3t-31.5 -3q-35 0 -34 35zM1098 346h213v336z" />
<glyph unicode="&#xbf;" horiz-adv-x="980" d="M225 -160q0 139 76 238l141 135q76 74 76 166q0 29 -13 62.5t-30.5 62t-31 49t-13.5 22.5q0 25 29 25q35 0 69.5 -34t63.5 -84t47 -106.5t18 -101.5q0 -47 -18 -96t-55 -94l-135 -162q-72 -96 -72 -211q0 -61 37 -102t90 -41q14 0 28.5 11t28.5 25.5t28.5 26t28.5 11.5 q80 0 80 -68q0 -47 -36.5 -79t-100.5 -32q-68 0 -128 32t-106 84t-74 121t-28 140zM385 860q0 63 39 103.5t104 40.5q47 0 73 -33t26 -80q0 -66 -39 -108t-96 -42q-106 0 -107 119z" />
<glyph unicode="&#xc0;" horiz-adv-x="1525" d="M10 45q0 35 56 35q70 0 100.5 27.5t52.5 85.5l477 1198q37 94 56 94h26q12 0 47 -86l428 -1090q16 -43 41 -96t47 -78q20 -23 56.5 -38t77.5 -17q41 -4 41 -35q0 -45 -62 -45h-457q-47 0 -47 43q0 23 20.5 28t45 9t45 14t20.5 43q0 12 -10 44t-26.5 77t-38 97.5 t-41.5 105.5h-504q-102 -244 -103 -314q0 -29 25 -40t55.5 -18t55 -15t24.5 -29q0 -45 -49 -45h-414q-18 0 -31.5 15.5t-13.5 29.5zM496 561h440l-219 582zM547 2058q0 31 47 31q74 0 96 -39q4 -8 15.5 -66.5t33.5 -173.5q43 -225 43 -245q0 -19 -14 -19q-35 0 -70.5 85 t-87.5 224q-33 88 -48 139.5t-15 63.5z" />
<glyph unicode="&#xc1;" horiz-adv-x="1525" d="M10 45q0 35 56 35q70 0 100.5 27.5t52.5 85.5l477 1198q37 94 56 94h26q12 0 47 -86l428 -1090q16 -43 41 -96t47 -78q20 -23 56.5 -38t77.5 -17q41 -4 41 -35q0 -45 -62 -45h-457q-47 0 -47 43q0 23 20.5 28t45 9t45 14t20.5 43q0 12 -10 44t-26.5 77t-38 97.5 t-41.5 105.5h-504q-102 -244 -103 -314q0 -29 25 -40t55.5 -18t55 -15t24.5 -29q0 -45 -49 -45h-414q-18 0 -31.5 15.5t-13.5 29.5zM496 561h440l-219 582zM711 1565q0 20 43 245q23 115 33 173.5t16 66.5q23 39 96 39q47 0 47 -31q0 -4 -8 -30.5t-22.5 -68.5t-32 -91 t-35.5 -97.5t-34.5 -91.5t-26.5 -67q-29 -66 -62 -66q-14 0 -14 19z" />
<glyph unicode="&#xc2;" horiz-adv-x="1525" d="M10 45q0 35 56 35q70 0 100.5 27.5t52.5 85.5l477 1198q37 94 56 94h26q12 0 47 -86l428 -1090q16 -43 41 -96t47 -78q20 -23 56.5 -38t77.5 -17q41 -4 41 -35q0 -45 -62 -45h-457q-47 0 -47 43q0 23 20.5 28t45 9t45 14t20.5 43q0 12 -10 44t-26.5 77t-38 97.5 t-41.5 105.5h-504q-102 -244 -103 -314q0 -29 25 -40t55.5 -18t55 -15t24.5 -29q0 -45 -49 -45h-414q-18 0 -31.5 15.5t-13.5 29.5zM494 1536q0 2 31 74l145 321q37 84 88 84t88 -84l141 -321q27 -59 27 -76q0 -25 -18 -25q-27 0 -45 35l-189 348l-209 -356q-14 -27 -37 -27 t-22 27zM496 561h440l-219 582z" />
<glyph unicode="&#xc3;" horiz-adv-x="1525" d="M10 45q0 35 56 35q70 0 100.5 27.5t52.5 85.5l477 1198q37 94 56 94h26q12 0 47 -86l428 -1090q16 -43 41 -96t47 -78q20 -23 56.5 -38t77.5 -17q41 -4 41 -35q0 -45 -62 -45h-457q-47 0 -47 43q0 23 20.5 28t45 9t45 14t20.5 43q0 12 -10 44t-26.5 77t-38 97.5 t-41.5 105.5h-504q-102 -244 -103 -314q0 -29 25 -40t55.5 -18t55 -15t24.5 -29q0 -45 -49 -45h-414q-18 0 -31.5 15.5t-13.5 29.5zM416 1632q0 14 18.5 42t42 55.5t45 50t25.5 26.5q45 43 94 43q31 0 67 -18.5t70.5 -41t67.5 -41t59 -18.5q53 0 109 84q20 27 37 27 q14 0 23.5 -10.5t9.5 -20.5q0 -12 -9 -27q-25 -53 -46 -87.5t-42.5 -56t-44 -31t-49.5 -9.5q-45 0 -153 78q-63 45 -123 45q-23 0 -44.5 -7t-33.5 -24l-43 -49q-35 -41 -55 -41q-25 0 -25 31zM496 561h440l-219 582z" />
<glyph unicode="&#xc4;" horiz-adv-x="1525" d="M10 45q0 35 56 35q70 0 100.5 27.5t52.5 85.5l477 1198q37 94 56 94h26q12 0 47 -86l428 -1090q16 -43 41 -96t47 -78q20 -23 56.5 -38t77.5 -17q41 -4 41 -35q0 -45 -62 -45h-457q-47 0 -47 43q0 23 20.5 28t45 9t45 14t20.5 43q0 12 -10 44t-26.5 77t-38 97.5 t-41.5 105.5h-504q-102 -244 -103 -314q0 -29 25 -40t55.5 -18t55 -15t24.5 -29q0 -45 -49 -45h-414q-18 0 -31.5 15.5t-13.5 29.5zM462 1696q0 47 29 82t76 35q80 0 80 -92q0 -111 -109 -111q-76 0 -76 86zM496 561h440l-219 582zM841 1696q0 47 29 82t76 35q80 0 80 -92 q0 -111 -109 -111q-76 0 -76 86z" />
<glyph unicode="&#xc5;" horiz-adv-x="1583" d="M47 45q0 35 55 35q70 0 100.5 27.5t53.5 85.5l485 1220q-76 18 -123 79.5t-47 139.5q0 45 17.5 86t48.5 72t72 49.5t88 18.5t88 -18.5t71.5 -49.5t48 -72t17.5 -86q0 -78 -48 -138t-118 -79l434 -1106q16 -43 41 -96t47 -78q20 -23 56 -38t77 -17q41 -4 41 -35 q0 -45 -61 -45h-457q-47 0 -47 43q0 23 20.5 28t45 9t45 14t20.5 43q0 12 -10 44t-26.5 77t-38 97.5t-42.5 105.5h-503q-102 -244 -103 -314q0 -29 24.5 -40t55.5 -18t55.5 -15t24.5 -29q0 -45 -49 -45h-414q-18 0 -31.5 15.5t-13.5 29.5zM532 561h441l-219 582zM653 1632 q0 -59 42 -101t104 -42q61 0 102 43t41 100q0 59 -42 102.5t-101 43.5t-102.5 -43.5t-43.5 -102.5z" />
<glyph unicode="&#xc6;" horiz-adv-x="2058" d="M-4 45q0 35 53 35q147 0 221 119l729 1171h-102q-41 0 -61.5 10.5t-20.5 38.5q0 45 33 45h1020q78 0 78 -61v-260q0 -45 -39 -45q-35 0 -47 45q-20 80 -39 125t-45.5 67.5t-66.5 27.5t-103 5h-162q-53 0 -87 -8t-53.5 -28.5t-26.5 -54.5t-7 -85v-379h182q51 0 84 4 t53.5 21.5t31.5 52.5t24 94q6 43 38 43q39 0 39 -43v-481q0 -45 -32 -45q-23 0 -31 11t-12 34q-12 70 -23.5 108.5t-15.5 51.5q-31 43 -156 43h-182v-433q0 -61 10 -97t38 -56.5t75 -26.5t120 -6h60q45 0 97 10.5t99.5 32t85 53t58.5 74.5q27 57 48 104.5t46 47.5 q39 0 39 -37q0 -45 -66 -297q-20 -76 -65 -76h-973q-59 0 -59 51q0 35 61 35q49 0 79 13.5t45 41t19.5 69.5t4.5 97v154h-525l-98 -158q-86 -135 -86 -156q0 -29 24.5 -41t55.5 -18t55.5 -14t24.5 -29q0 -45 -49 -45h-463q-35 14 -35 45zM633 561h459v96q0 297 -2.5 456 t-8.5 183z" />
<glyph unicode="&#xc7;" horiz-adv-x="1271" d="M70 725q0 174 45 313.5t131 236.5t211 148.5t284 51.5q18 0 50 -5.5t68 -11.5t67.5 -11t48.5 -5q23 0 46 17.5t36 17.5q16 0 25.5 -12.5t16.5 -39t15 -69.5t25 -107q18 -80 18 -127q0 -37 -33 -37q-27 0 -51 52q-33 66 -72.5 109.5t-85 69t-95.5 36t-101 10.5 q-96 0 -178 -48t-141.5 -129t-94.5 -189.5t-35 -227.5q0 -154 39 -273.5t112 -203.5t177 -128t236 -44q111 0 219 69q47 29 67 29q53 0 54 -35q0 -43 -40 -78.5t-104.5 -63.5t-143.5 -44t-157 -19l-35 -81q18 6 45 6q172 0 172 -148q0 -55 -21.5 -100t-58 -77t-88 -50.5 t-108.5 -18.5q-33 0 -33 25q0 12 19.5 26.5t44 29t46 24.5t25.5 14q41 35 41 90q0 96 -127 121q-35 6 -35 23q0 12 5 28l34 91q-129 10 -236.5 71.5t-185 160.5t-120.5 230t-43 283z" />
<glyph unicode="&#xc8;" horiz-adv-x="1245" d="M47 51q0 35 64 35q51 0 79.5 15.5t44 45t19.5 73.5t4 104v129v204q0 621 -31 670q-14 20 -42.5 28.5t-58.5 14.5t-51.5 16.5t-21.5 32.5q0 45 33 45h938q76 0 76 -61v-260q0 -45 -37 -45q-35 0 -47 45q-20 78 -39 123t-45.5 67.5t-66.5 28.5t-103 6h-162q-53 0 -87 -8 t-54.5 -27.5t-27.5 -54.5t-7 -86l2 -379h180q53 0 86 4t53.5 21.5t31.5 52.5t22 94q6 43 41 43q39 0 39 -43v-481q0 -45 -35 -45q-37 0 -43 45q-12 70 -20.5 108.5t-16.5 51.5q-29 43 -158 43h-180l-2 -433q0 -63 11 -100t41 -56.5t77 -24.5t117 -5q16 0 30.5 1t26.5 1h10 q123 0 207 41t125 127q29 59 48.5 105.5t45.5 46.5q37 0 37 -37q0 -45 -65 -297q-20 -76 -66 -76h-960q-61 0 -62 51zM459 2040q0 31 47 31q74 0 96 -39q4 -8 15.5 -66.5t33.5 -173.5q43 -225 43 -245q0 -19 -14 -19q-35 0 -70.5 85t-87.5 224q-33 88 -48 139.5t-15 63.5z " />
<glyph unicode="&#xc9;" horiz-adv-x="1245" d="M47 51q0 35 64 35q51 0 79.5 15.5t44 45t19.5 73.5t4 104v129v204q0 621 -31 670q-14 20 -42.5 28.5t-58.5 14.5t-51.5 16.5t-21.5 32.5q0 45 33 45h938q76 0 76 -61v-260q0 -45 -37 -45q-35 0 -47 45q-20 78 -39 123t-45.5 67.5t-66.5 28.5t-103 6h-162q-53 0 -87 -8 t-54.5 -27.5t-27.5 -54.5t-7 -86l2 -379h180q53 0 86 4t53.5 21.5t31.5 52.5t22 94q6 43 41 43q39 0 39 -43v-481q0 -45 -35 -45q-37 0 -43 45q-12 70 -20.5 108.5t-16.5 51.5q-29 43 -158 43h-180l-2 -433q0 -63 11 -100t41 -56.5t77 -24.5t117 -5q16 0 30.5 1t26.5 1h10 q123 0 207 41t125 127q29 59 48.5 105.5t45.5 46.5q37 0 37 -37q0 -45 -65 -297q-20 -76 -66 -76h-960q-61 0 -62 51zM561 1547q0 20 43 245q23 115 33 173.5t16 66.5q23 39 96 39q47 0 47 -31q0 -4 -8 -30.5t-22.5 -68.5t-32 -91t-35.5 -97.5t-34.5 -91.5t-26.5 -67 q-29 -66 -62 -66q-14 0 -14 19z" />
<glyph unicode="&#xca;" horiz-adv-x="1245" d="M47 51q0 35 64 35q51 0 79.5 15.5t44 45t19.5 73.5t4 104v129v204q0 621 -31 670q-14 20 -42.5 28.5t-58.5 14.5t-51.5 16.5t-21.5 32.5q0 45 33 45h938q76 0 76 -61v-260q0 -45 -37 -45q-35 0 -47 45q-20 78 -39 123t-45.5 67.5t-66.5 28.5t-103 6h-162q-53 0 -87 -8 t-54.5 -27.5t-27.5 -54.5t-7 -86l2 -379h180q53 0 86 4t53.5 21.5t31.5 52.5t22 94q6 43 41 43q39 0 39 -43v-481q0 -45 -35 -45q-37 0 -43 45q-12 70 -20.5 108.5t-16.5 51.5q-29 43 -158 43h-180l-2 -433q0 -63 11 -100t41 -56.5t77 -24.5t117 -5q16 0 30.5 1t26.5 1h10 q123 0 207 41t125 127q29 59 48.5 105.5t45.5 46.5q37 0 37 -37q0 -45 -65 -297q-20 -76 -66 -76h-960q-61 0 -62 51zM375 1557q0 2 31 74l145 321q37 84 88 84t88 -84l141 -321q27 -59 27 -76q0 -25 -18 -25q-27 0 -45 35l-189 348l-209 -356q-14 -27 -37 -27t-22 27z" />
<glyph unicode="&#xcb;" horiz-adv-x="1245" d="M47 51q0 35 64 35q51 0 79.5 15.5t44 45t19.5 73.5t4 104v129v204q0 621 -31 670q-14 20 -42.5 28.5t-58.5 14.5t-51.5 16.5t-21.5 32.5q0 45 33 45h938q76 0 76 -61v-260q0 -45 -37 -45q-35 0 -47 45q-20 78 -39 123t-45.5 67.5t-66.5 28.5t-103 6h-162q-53 0 -87 -8 t-54.5 -27.5t-27.5 -54.5t-7 -86l2 -379h180q53 0 86 4t53.5 21.5t31.5 52.5t22 94q6 43 41 43q39 0 39 -43v-481q0 -45 -35 -45q-37 0 -43 45q-12 70 -20.5 108.5t-16.5 51.5q-29 43 -158 43h-180l-2 -433q0 -63 11 -100t41 -56.5t77 -24.5t117 -5q16 0 30.5 1t26.5 1h10 q123 0 207 41t125 127q29 59 48.5 105.5t45.5 46.5q37 0 37 -37q0 -45 -65 -297q-20 -76 -66 -76h-960q-61 0 -62 51zM323 1696q0 47 29 82t76 35q80 0 80 -92q0 -111 -109 -111q-76 0 -76 86zM702 1696q0 47 29 82t76 35q80 0 80 -92q0 -111 -109 -111q-76 0 -76 86z" />
<glyph unicode="&#xcc;" horiz-adv-x="792" d="M102 51q0 29 24 32t56 5q18 0 39 4t37 15.5t26.5 33t12.5 60.5l6 182q2 59 3 102t1 72v291q0 29 -1 80t-3 123l-6 213q-2 37 -10 59.5t-24.5 33.5t-44.5 15t-68 4q-47 0 -48 37q0 51 62 51h450q55 0 56 -51q0 -18 -29 -26.5t-63 -20.5q-35 -12 -64 -33.5t-33 -64.5 q-2 -18 -2 -87v-190v-485v-213t4 -96q10 -88 76 -99l80 -12q51 -10 51 -31q0 -55 -55 -55h-471q-61 0 -62 51zM223 2040q0 31 47 31q74 0 96 -39q4 -8 15.5 -66.5t33.5 -173.5q43 -225 43 -245q0 -19 -14 -19q-35 0 -70.5 85t-87.5 224q-33 88 -48 139.5t-15 63.5z" />
<glyph unicode="&#xcd;" horiz-adv-x="792" d="M102 51q0 29 24 32t56 5q18 0 39 4t37 15.5t26.5 33t12.5 60.5l6 182q2 59 3 102t1 72v291q0 29 -1 80t-3 123l-6 213q-2 37 -10 59.5t-24.5 33.5t-44.5 15t-68 4q-47 0 -48 37q0 51 62 51h450q55 0 56 -51q0 -18 -29 -26.5t-63 -20.5q-35 -12 -64 -33.5t-33 -64.5 q-2 -18 -2 -87v-190v-485v-213t4 -96q10 -88 76 -99l80 -12q51 -10 51 -31q0 -55 -55 -55h-471q-61 0 -62 51zM332 1547q0 20 43 245q23 115 33 173.5t16 66.5q23 39 96 39q47 0 47 -31q0 -4 -8 -30.5t-22.5 -68.5t-32 -91t-35.5 -97.5t-34.5 -91.5t-26.5 -67 q-29 -66 -62 -66q-14 0 -14 19z" />
<glyph unicode="&#xce;" horiz-adv-x="792" d="M102 51q0 29 24 32t56 5q18 0 39 4t37 15.5t26.5 33t12.5 60.5l6 182q2 59 3 102t1 72v291q0 29 -1 80t-3 123l-6 213q-2 37 -10 59.5t-24.5 33.5t-44.5 15t-68 4q-47 0 -48 37q0 51 62 51h450q55 0 56 -51q0 -18 -29 -26.5t-63 -20.5q-35 -12 -64 -33.5t-33 -64.5 q-2 -18 -2 -87v-190v-485v-213t4 -96q10 -88 76 -99l80 -12q51 -10 51 -31q0 -55 -55 -55h-471q-61 0 -62 51zM135 1557q0 2 31 74l145 321q37 84 88 84t88 -84l141 -321q27 -59 27 -76q0 -25 -18 -25q-27 0 -45 35l-189 348l-209 -356q-14 -27 -37 -27t-22 27z" />
<glyph unicode="&#xcf;" horiz-adv-x="792" d="M102 51q0 29 24 32t56 5q18 0 39 4t37 15.5t26.5 33t12.5 60.5l6 182q2 59 3 102t1 72v291q0 29 -1 80t-3 123l-6 213q-2 37 -10 59.5t-24.5 33.5t-44.5 15t-68 4q-47 0 -48 37q0 51 62 51h450q55 0 56 -51q0 -18 -29 -26.5t-63 -20.5q-35 -12 -64 -33.5t-33 -64.5 q-2 -18 -2 -87v-190v-485v-213t4 -96q10 -88 76 -99l80 -12q51 -10 51 -31q0 -55 -55 -55h-471q-61 0 -62 51zM102 1696q0 47 29 82t76 35q80 0 80 -92q0 -111 -109 -111q-76 0 -76 86zM481 1696q0 47 29 82t76 35q80 0 80 -92q0 -111 -109 -111q-76 0 -76 86z" />
<glyph unicode="&#xd0;" horiz-adv-x="1468" d="M68 51q0 23 14 29t34.5 7t45 2t46 10.5t36 32t16.5 69.5l6 182q2 59 3 102t1 72v170h-147q-23 0 -39 22.5t-16 49.5q0 43 32 43h170v14q0 29 -1 79t-3 120l-6 209q-2 37 -9 59.5t-24.5 33.5t-45 15t-68.5 4q-45 0 -45 37q0 39 39.5 47t111.5 8h60q111 0 197.5 5.5 t139.5 5.5q373 0 566.5 -185.5t193.5 -541.5q0 -369 -184 -564.5t-537 -195.5q-41 0 -94 1t-101 3t-80 3t-30 1h-223q-59 0 -59 51zM442 557q0 -133 2 -217t7 -121q10 -72 50 -100.5t132 -28.5q260 0 399 168t139 473q0 311 -141 474t-416 163q-88 0 -124.5 -23.5 t-38.5 -64.5q-4 -80 -6.5 -153.5t-2.5 -139.5v-145h281q45 0 45 -39q0 -29 -16.5 -52.5t-40.5 -23.5h-269v-170z" />
<glyph unicode="&#xd1;" horiz-adv-x="1624" d="M31 1427q0 37 53 37h192q45 0 96.5 12.5t73.5 12.5q23 0 41.5 -23.5t28.5 -40.5l729 -1101v872q0 92 -47 129t-168 37q-18 0 -32.5 19.5t-14.5 39.5q0 43 47 43h537q37 0 37 -43q0 -59 -68 -59q-98 0 -135 -37t-37 -129v-1151q0 -80 -55 -80q-31 0 -74 64l-846 1259 v-1036q0 -160 191 -160q51 0 51 -29q0 -63 -51 -63h-496q-51 0 -51 57q0 35 33 35q203 0 202 160v954q0 49 -6 80t-24.5 49.5t-53 25.5t-92.5 11q-31 2 -46 17.5t-15 37.5zM407 1665q0 14 20.5 41t46.5 55.5t51.5 52t35.5 33.5q23 23 55.5 36t61.5 13q39 0 82 -19.5t86 -44 t83 -44t72 -19.5q66 0 133 91q23 29 45 28q16 0 27.5 -10t11.5 -23q0 -12 -10 -28q-33 -57 -58.5 -95t-50 -60.5t-52 -32t-60.5 -9.5q-37 0 -73 20.5t-75.5 45t-85 45t-98.5 20.5q-29 0 -53.5 -6t-44.5 -27l-51 -53q-23 -23 -40.5 -33t-27.5 -10q-31 0 -31 33z" />
<glyph unicode="&#xd2;" horiz-adv-x="1550" d="M102 754q0 143 45.5 276t129 235.5t203.5 164t272 61.5t279.5 -56.5t219.5 -154.5t144.5 -233.5t52.5 -292.5q0 -166 -49 -308.5t-138.5 -246t-211.5 -163t-269 -59.5q-152 0 -276.5 52.5t-213.5 153t-138.5 243.5t-49.5 328zM315 762q0 -170 35 -295t97.5 -206t151 -121 t194.5 -40q125 0 211 52.5t139 139.5t77.5 201.5t24.5 241.5q0 147 -40 265t-110.5 199t-164.5 124t-205 43q-86 0 -161 -34t-130 -106.5t-87 -187t-32 -276.5zM604 2040q0 31 47 31q74 0 96 -39q4 -8 15.5 -66.5t33.5 -173.5q43 -225 43 -245q0 -19 -14 -19q-35 0 -70.5 85 t-87.5 224q-33 88 -48 139.5t-15 63.5z" />
<glyph unicode="&#xd3;" horiz-adv-x="1550" d="M102 754q0 143 45.5 276t129 235.5t203.5 164t272 61.5t279.5 -56.5t219.5 -154.5t144.5 -233.5t52.5 -292.5q0 -166 -49 -308.5t-138.5 -246t-211.5 -163t-269 -59.5q-152 0 -276.5 52.5t-213.5 153t-138.5 243.5t-49.5 328zM315 762q0 -170 35 -295t97.5 -206t151 -121 t194.5 -40q125 0 211 52.5t139 139.5t77.5 201.5t24.5 241.5q0 147 -40 265t-110.5 199t-164.5 124t-205 43q-86 0 -161 -34t-130 -106.5t-87 -187t-32 -276.5zM699 1547q0 20 43 245q23 115 33 173.5t16 66.5q23 39 96 39q47 0 47 -31q0 -4 -8 -30.5t-22.5 -68.5t-32 -91 t-35.5 -97.5t-34.5 -91.5t-26.5 -67q-29 -66 -62 -66q-14 0 -14 19z" />
<glyph unicode="&#xd4;" horiz-adv-x="1550" d="M102 754q0 143 45.5 276t129 235.5t203.5 164t272 61.5t279.5 -56.5t219.5 -154.5t144.5 -233.5t52.5 -292.5q0 -166 -49 -308.5t-138.5 -246t-211.5 -163t-269 -59.5q-152 0 -276.5 52.5t-213.5 153t-138.5 243.5t-49.5 328zM315 762q0 -170 35 -295t97.5 -206t151 -121 t194.5 -40q125 0 211 52.5t139 139.5t77.5 201.5t24.5 241.5q0 147 -40 265t-110.5 199t-164.5 124t-205 43q-86 0 -161 -34t-130 -106.5t-87 -187t-32 -276.5zM510 1557q0 2 31 74l145 321q37 84 88 84t88 -84l141 -321q27 -59 27 -76q0 -25 -18 -25q-27 0 -45 35l-189 348 l-209 -356q-14 -27 -37 -27t-22 27z" />
<glyph unicode="&#xd5;" horiz-adv-x="1550" d="M102 754q0 143 45.5 276t129 235.5t203.5 164t272 61.5t279.5 -56.5t219.5 -154.5t144.5 -233.5t52.5 -292.5q0 -166 -49 -308.5t-138.5 -246t-211.5 -163t-269 -59.5q-152 0 -276.5 52.5t-213.5 153t-138.5 243.5t-49.5 328zM315 762q0 -170 35 -295t97.5 -206t151 -121 t194.5 -40q125 0 211 52.5t139 139.5t77.5 201.5t24.5 241.5q0 147 -40 265t-110.5 199t-164.5 124t-205 43q-86 0 -161 -34t-130 -106.5t-87 -187t-32 -276.5zM414 1643q0 14 18.5 42t42 55.5t45 50t25.5 26.5q45 43 94 43q31 0 67 -18.5t70.5 -41t67.5 -41t59 -18.5 q53 0 109 84q20 27 37 27q14 0 23.5 -10.5t9.5 -20.5q0 -12 -9 -27q-25 -53 -46 -87.5t-42.5 -56t-44 -31t-49.5 -9.5q-45 0 -153 78q-63 45 -123 45q-23 0 -44.5 -7t-33.5 -24l-43 -49q-35 -41 -55 -41q-25 0 -25 31z" />
<glyph unicode="&#xd6;" horiz-adv-x="1550" d="M102 754q0 143 45.5 276t129 235.5t203.5 164t272 61.5t279.5 -56.5t219.5 -154.5t144.5 -233.5t52.5 -292.5q0 -166 -49 -308.5t-138.5 -246t-211.5 -163t-269 -59.5q-152 0 -276.5 52.5t-213.5 153t-138.5 243.5t-49.5 328zM315 762q0 -170 35 -295t97.5 -206t151 -121 t194.5 -40q125 0 211 52.5t139 139.5t77.5 201.5t24.5 241.5q0 147 -40 265t-110.5 199t-164.5 124t-205 43q-86 0 -161 -34t-130 -106.5t-87 -187t-32 -276.5zM479 1696q0 47 29 82t76 35q80 0 80 -92q0 -111 -109 -111q-76 0 -76 86zM858 1696q0 47 29 82t76 35 q80 0 80 -92q0 -111 -109 -111q-76 0 -76 86z" />
<glyph unicode="&#xd7;" d="M135 797l70 75l303 -297l287 297l77 -75l-288 -297l286 -287l-73 -72l-289 289l-272 -289l-76 72l278 287z" />
<glyph unicode="&#xd8;" horiz-adv-x="1542" d="M102 754q0 154 48.5 288t135.5 233t205.5 157.5t260.5 58.5q272 0 460 -170l99 113q31 37 63 36q23 0 44.5 -21.5t21.5 -41.5q0 -14 -5 -23.5t-12 -19.5l-123 -141q147 -197 148 -469q0 -166 -49 -308.5t-138.5 -246t-211 -163t-269.5 -59.5q-250 0 -420 150l-114 -133 q-23 -27 -45 -27q-39 0 -54.5 22.5t-15.5 43.5q0 14 9.5 30.5t25.5 34.5l102 123q-166 215 -166 533zM332 813q0 -236 84 -422l676 787q-141 188 -367 188q-82 0 -153.5 -38t-125 -109.5t-84 -174t-30.5 -231.5zM485 272q125 -172 324 -172q106 0 184 61.5t129.5 156t77 206 t25.5 211.5q0 170 -66 324z" />
<glyph unicode="&#xd9;" horiz-adv-x="1544" d="M47 1413q0 51 59 51h461q53 0 54 -51q0 -16 -28 -24.5t-61.5 -20.5t-63.5 -34.5t-34 -65.5q-4 -18 -4 -87v-190v-424q0 -205 95.5 -325.5t269.5 -120.5q186 0 287.5 110.5t101.5 309.5v723q0 70 -36 91t-122 21q-45 0 -45 37q0 51 59 51h402q55 0 55 -51 q0 -14 -14.5 -20.5t-36.5 -14.5l-51 -16q-76 -25 -86 -94q-2 -18 -3 -87t-1 -190v-475q0 -262 -135.5 -399t-393.5 -137q-256 0 -390 135t-134 391v94t-1 142t-4 213t-7 309q0 37 -8.5 59.5t-25 33.5t-44 15t-70.5 4q-45 0 -45 37zM617 2040q0 31 47 31q74 0 96 -39 q4 -8 15.5 -66.5t33.5 -173.5q43 -225 43 -245q0 -19 -14 -19q-35 0 -70.5 85t-87.5 224q-33 88 -48 139.5t-15 63.5z" />
<glyph unicode="&#xda;" horiz-adv-x="1544" d="M47 1413q0 51 59 51h461q53 0 54 -51q0 -16 -28 -24.5t-61.5 -20.5t-63.5 -34.5t-34 -65.5q-4 -18 -4 -87v-190v-424q0 -205 95.5 -325.5t269.5 -120.5q186 0 287.5 110.5t101.5 309.5v723q0 70 -36 91t-122 21q-45 0 -45 37q0 51 59 51h402q55 0 55 -51 q0 -14 -14.5 -20.5t-36.5 -14.5l-51 -16q-76 -25 -86 -94q-2 -18 -3 -87t-1 -190v-475q0 -262 -135.5 -399t-393.5 -137q-256 0 -390 135t-134 391v94t-1 142t-4 213t-7 309q0 37 -8.5 59.5t-25 33.5t-44 15t-70.5 4q-45 0 -45 37zM752 1547q0 20 43 245q23 115 33 173.5 t16 66.5q23 39 96 39q47 0 47 -31q0 -4 -8 -30.5t-22.5 -68.5t-32 -91t-35.5 -97.5t-34.5 -91.5t-26.5 -67q-29 -66 -62 -66q-14 0 -14 19z" />
<glyph unicode="&#xdb;" horiz-adv-x="1544" d="M47 1413q0 51 59 51h461q53 0 54 -51q0 -16 -28 -24.5t-61.5 -20.5t-63.5 -34.5t-34 -65.5q-4 -18 -4 -87v-190v-424q0 -205 95.5 -325.5t269.5 -120.5q186 0 287.5 110.5t101.5 309.5v723q0 70 -36 91t-122 21q-45 0 -45 37q0 51 59 51h402q55 0 55 -51 q0 -14 -14.5 -20.5t-36.5 -14.5l-51 -16q-76 -25 -86 -94q-2 -18 -3 -87t-1 -190v-475q0 -262 -135.5 -399t-393.5 -137q-256 0 -390 135t-134 391v94t-1 142t-4 213t-7 309q0 37 -8.5 59.5t-25 33.5t-44 15t-70.5 4q-45 0 -45 37zM553 1557q0 2 31 74l145 321q37 84 88 84 t88 -84l141 -321q27 -59 27 -76q0 -25 -18 -25q-27 0 -45 35l-189 348l-209 -356q-14 -27 -37 -27t-22 27z" />
<glyph unicode="&#xdc;" horiz-adv-x="1544" d="M47 1413q0 51 59 51h461q53 0 54 -51q0 -16 -28 -24.5t-61.5 -20.5t-63.5 -34.5t-34 -65.5q-4 -18 -4 -87v-190v-424q0 -205 95.5 -325.5t269.5 -120.5q186 0 287.5 110.5t101.5 309.5v723q0 70 -36 91t-122 21q-45 0 -45 37q0 51 59 51h402q55 0 55 -51 q0 -14 -14.5 -20.5t-36.5 -14.5l-51 -16q-76 -25 -86 -94q-2 -18 -3 -87t-1 -190v-475q0 -262 -135.5 -399t-393.5 -137q-256 0 -390 135t-134 391v94t-1 142t-4 213t-7 309q0 37 -8.5 59.5t-25 33.5t-44 15t-70.5 4q-45 0 -45 37zM512 1696q0 47 29 82t76 35q80 0 80 -92 q0 -111 -109 -111q-76 0 -76 86zM891 1696q0 47 29 82t76 35q80 0 80 -92q0 -111 -109 -111q-76 0 -76 86z" />
<glyph unicode="&#xdd;" horiz-adv-x="1406" d="M6 1430q0 35 53 34h416q55 0 55 -30q0 -18 -9 -28.5t-21.5 -16t-26.5 -8.5t-27 -5q-23 -4 -34 -16t-11 -23q0 -18 9.5 -37.5t17.5 -35.5q2 -6 12.5 -25.5t40 -77t86 -163t152.5 -281.5l297 520q43 74 43 92q0 27 -29 36t-62.5 14t-61 13.5t-27.5 32.5q0 20 12 29.5 t53 9.5h412q23 0 34 -7t11 -30q0 -14 -10.5 -22t-25.5 -13.5t-32.5 -9.5t-29.5 -8q-29 -10 -61 -19t-44 -38q-6 -10 -20.5 -30.5t-30.5 -49.5l-381 -645v-250q0 -53 1 -97t9 -77t25.5 -51.5t48.5 -18.5q59 0 95 -9t36 -34q0 -55 -53 -55h-473q-59 0 -60 51q0 29 23.5 32 t56.5 5q18 0 39 3t37 14.5t27.5 32t13.5 57.5q2 41 3 69.5t1 44.5v283l-356 649q-31 57 -49.5 84t-37 38t-42 12t-66.5 7q-39 6 -39 48zM672 1547q0 20 43 245q23 115 33 173.5t16 66.5q23 39 96 39q47 0 47 -31q0 -4 -8 -30.5t-22.5 -68.5t-32 -91t-35.5 -97.5t-34.5 -91.5 t-26.5 -67q-29 -66 -62 -66q-14 0 -14 19z" />
<glyph unicode="&#xde;" horiz-adv-x="1212" d="M53 51q0 20 13.5 26.5t34 8.5t44 4t45 11.5t37 32t19.5 67.5q2 27 4 77t3 101t2 95t1 58v517v131t-4 84q-6 37 -15.5 59.5t-25.5 33.5t-44 15t-69 4q-45 0 -45 37q0 51 60 51h452q53 0 53 -51q0 -16 -20 -26.5t-49 -14.5q-41 -4 -77 -29.5t-40 -74.5l-4 -90q123 6 180 6 q543 0 543 -387q0 -223 -152.5 -341t-425.5 -118q-104 0 -104 57q0 47 109 47q174 0 268 91.5t94 265.5q0 283 -272 282q-82 0 -129 -17t-72 -52t-32 -90.5t-7 -130.5v-408q0 -88 2 -142.5t9 -85t23.5 -42t47.5 -15.5l74 -10q55 -10 55 -33q0 -55 -53 -55h-473q-59 0 -60 51 z" />
<glyph unicode="&#xdf;" horiz-adv-x="1118" d="M35 49q0 23 25.5 30t57.5 11t58.5 10t30.5 25q6 45 6 133v616h-117q-55 0 -55 56q0 43 33 43h139q4 129 43 237.5t101.5 187.5t140 123t157.5 44q53 0 103.5 -22.5t89.5 -61.5t62.5 -91.5t23.5 -109.5q0 -55 -13.5 -107.5t-48.5 -93.5l-110 -131q-59 -72 -60 -153 q0 -16 19.5 -46t49.5 -64t65.5 -68.5t65.5 -63.5t51.5 -48.5t23.5 -21.5q94 -113 94 -227q0 -289 -305 -289q-41 0 -79 10.5t-67.5 26.5t-47 40t-17.5 52q0 61 70 62q25 0 42 -17.5t33.5 -38t36 -38t45.5 -17.5q61 0 96 43t35 113q0 51 -21.5 100t-68.5 96l-170 160 q-51 47 -70.5 104.5t-19.5 116.5q0 76 101 197q100 119 100 213q0 236 -205 235q-94 0 -145.5 -87t-51.5 -228v-106.5t1.5 -149.5t1.5 -171t1 -171t1 -149.5v-106.5q0 -59 13 -92t31.5 -49.5t42 -21.5t42 -9t32 -10t13.5 -25q0 -49 -45 -49h-414q-47 0 -47 49z" />
<glyph unicode="&#xe0;" horiz-adv-x="909" d="M80 168q0 80 30.5 135t92 97t156 76t223.5 73q6 135 6 205q0 84 -19.5 115.5t-70.5 31.5q-84 0 -142.5 -51t-81.5 -131q-20 -70 -92 -70q-23 0 -42 19.5t-19 48.5q0 90 186 207q129 80 207 80q63 0 108.5 -19.5t73 -63.5t40 -118t12.5 -182q0 -31 -4.5 -95.5t-8.5 -135.5 t-8 -135.5t-4 -94.5q0 -63 59 -64q6 0 16.5 5t21.5 10.5t20.5 10.5t13.5 5q35 0 35 -35q0 -18 -18.5 -38.5t-45 -38t-56.5 -28t-52 -10.5q-147 0 -148 179q0 86 13 307l-158 -57q-94 -35 -138 -91.5t-44 -132.5q0 -39 29.5 -68.5t66.5 -29.5q25 0 52.5 11t52 25.5t45 26 t32.5 11.5q31 0 31 -29q0 -25 -19 -45q-90 -117 -264 -117q-84 0 -136 52.5t-52 148.5zM314 1669q0 31 47 31q74 0 96 -39q4 -8 15.5 -66.5t33.5 -173.5q43 -225 43 -245q0 -19 -14 -19q-35 0 -70.5 85t-87.5 224q-33 88 -48 139.5t-15 63.5z" />
<glyph unicode="&#xe1;" horiz-adv-x="909" d="M80 168q0 80 30.5 135t92 97t156 76t223.5 73q6 135 6 205q0 84 -19.5 115.5t-70.5 31.5q-84 0 -142.5 -51t-81.5 -131q-20 -70 -92 -70q-23 0 -42 19.5t-19 48.5q0 90 186 207q129 80 207 80q63 0 108.5 -19.5t73 -63.5t40 -118t12.5 -182q0 -31 -4.5 -95.5t-8.5 -135.5 t-8 -135.5t-4 -94.5q0 -63 59 -64q6 0 16.5 5t21.5 10.5t20.5 10.5t13.5 5q35 0 35 -35q0 -18 -18.5 -38.5t-45 -38t-56.5 -28t-52 -10.5q-147 0 -148 179q0 86 13 307l-158 -57q-94 -35 -138 -91.5t-44 -132.5q0 -39 29.5 -68.5t66.5 -29.5q25 0 52.5 11t52 25.5t45 26 t32.5 11.5q31 0 31 -29q0 -25 -19 -45q-90 -117 -264 -117q-84 0 -136 52.5t-52 148.5zM418 1176q0 20 43 245q23 115 33 173.5t16 66.5q23 39 96 39q47 0 47 -31q0 -4 -8 -30.5t-22.5 -68.5t-32 -91t-35.5 -97.5t-34.5 -91.5t-26.5 -67q-29 -66 -62 -66q-14 0 -14 19z" />
<glyph unicode="&#xe2;" horiz-adv-x="909" d="M80 168q0 80 30.5 135t92 97t156 76t223.5 73q6 135 6 205q0 84 -19.5 115.5t-70.5 31.5q-84 0 -142.5 -51t-81.5 -131q-20 -70 -92 -70q-23 0 -42 19.5t-19 48.5q0 90 186 207q129 80 207 80q63 0 108.5 -19.5t73 -63.5t40 -118t12.5 -182q0 -31 -4.5 -95.5t-8.5 -135.5 t-8 -135.5t-4 -94.5q0 -63 59 -64q6 0 16.5 5t21.5 10.5t20.5 10.5t13.5 5q35 0 35 -35q0 -18 -18.5 -38.5t-45 -38t-56.5 -28t-52 -10.5q-147 0 -148 179q0 86 13 307l-158 -57q-94 -35 -138 -91.5t-44 -132.5q0 -39 29.5 -68.5t66.5 -29.5q25 0 52.5 11t52 25.5t45 26 t32.5 11.5q31 0 31 -29q0 -25 -19 -45q-90 -117 -264 -117q-84 0 -136 52.5t-52 148.5zM195 1186q0 2 31 74l145 321q37 84 88 84t88 -84l141 -321q27 -59 27 -76q0 -25 -18 -25q-27 0 -45 35l-189 348l-209 -356q-14 -27 -37 -27t-22 27z" />
<glyph unicode="&#xe3;" horiz-adv-x="909" d="M80 168q0 80 30.5 135t92 97t156 76t223.5 73q6 135 6 205q0 84 -19.5 115.5t-70.5 31.5q-84 0 -142.5 -51t-81.5 -131q-20 -70 -92 -70q-23 0 -42 19.5t-19 48.5q0 90 186 207q129 80 207 80q63 0 108.5 -19.5t73 -63.5t40 -118t12.5 -182q0 -31 -4.5 -95.5t-8.5 -135.5 t-8 -135.5t-4 -94.5q0 -63 59 -64q6 0 16.5 5t21.5 10.5t20.5 10.5t13.5 5q35 0 35 -35q0 -18 -18.5 -38.5t-45 -38t-56.5 -28t-52 -10.5q-147 0 -148 179q0 86 13 307l-158 -57q-94 -35 -138 -91.5t-44 -132.5q0 -39 29.5 -68.5t66.5 -29.5q25 0 52.5 11t52 25.5t45 26 t32.5 11.5q31 0 31 -29q0 -25 -19 -45q-90 -117 -264 -117q-84 0 -136 52.5t-52 148.5zM137 1192q0 14 18.5 42t42 55.5t45 50t25.5 26.5q45 43 94 43q31 0 67 -18.5t70.5 -41t67.5 -41t59 -18.5q53 0 109 84q20 27 37 27q14 0 23.5 -10.5t9.5 -20.5q0 -12 -9 -27 q-25 -53 -46 -87.5t-42.5 -56t-44 -31t-49.5 -9.5q-45 0 -153 78q-63 45 -123 45q-23 0 -44.5 -7t-33.5 -24l-43 -49q-35 -41 -55 -41q-25 0 -25 31z" />
<glyph unicode="&#xe4;" horiz-adv-x="909" d="M80 168q0 80 30.5 135t92 97t156 76t223.5 73q6 135 6 205q0 84 -19.5 115.5t-70.5 31.5q-84 0 -142.5 -51t-81.5 -131q-20 -70 -92 -70q-23 0 -42 19.5t-19 48.5q0 90 186 207q129 80 207 80q63 0 108.5 -19.5t73 -63.5t40 -118t12.5 -182q0 -31 -4.5 -95.5t-8.5 -135.5 t-8 -135.5t-4 -94.5q0 -63 59 -64q6 0 16.5 5t21.5 10.5t20.5 10.5t13.5 5q35 0 35 -35q0 -18 -18.5 -38.5t-45 -38t-56.5 -28t-52 -10.5q-147 0 -148 179q0 86 13 307l-158 -57q-94 -35 -138 -91.5t-44 -132.5q0 -39 29.5 -68.5t66.5 -29.5q25 0 52.5 11t52 25.5t45 26 t32.5 11.5q31 0 31 -29q0 -25 -19 -45q-90 -117 -264 -117q-84 0 -136 52.5t-52 148.5zM192 1245q0 47 29 82t76 35q80 0 80 -92q0 -111 -109 -111q-76 0 -76 86zM571 1245q0 47 29 82t76 35q80 0 80 -92q0 -111 -109 -111q-76 0 -76 86z" />
<glyph unicode="&#xe5;" horiz-adv-x="909" d="M80 168q0 80 30.5 135t92 97t156 76t223.5 73q6 135 6 205q0 84 -19.5 115.5t-70.5 31.5q-84 0 -142.5 -51t-81.5 -131q-20 -70 -92 -70q-23 0 -42 19.5t-19 48.5q0 90 186 207q129 80 207 80q63 0 108.5 -19.5t73 -63.5t40 -118t12.5 -182q0 -31 -4.5 -95.5t-8.5 -135.5 t-8 -135.5t-4 -94.5q0 -63 59 -64q6 0 16.5 5t21.5 10.5t20.5 10.5t13.5 5q35 0 35 -35q0 -18 -18.5 -38.5t-45 -38t-56.5 -28t-52 -10.5q-147 0 -148 179q0 86 13 307l-158 -57q-94 -35 -138 -91.5t-44 -132.5q0 -39 29.5 -68.5t66.5 -29.5q25 0 52.5 11t52 25.5t45 26 t32.5 11.5q31 0 31 -29q0 -25 -19 -45q-90 -117 -264 -117q-84 0 -136 52.5t-52 148.5zM245 1382q0 45 17.5 86t48.5 72t72 49.5t86 18.5t86 -17.5t71.5 -48.5t49 -71.5t18.5 -88.5q0 -47 -18.5 -88t-49 -71.5t-71.5 -48t-86 -17.5q-47 0 -88 18.5t-71 49t-47.5 71.5 t-17.5 86zM327 1382q0 -59 42.5 -102t101.5 -43t102 43t43 102t-43 102.5t-102 43.5t-101.5 -42t-42.5 -104z" />
<glyph unicode="&#xe6;" horiz-adv-x="1384" d="M80 168q0 80 30.5 135t92 97t156 76t223.5 73q6 135 6 205q0 84 -19.5 115.5t-70.5 31.5q-174 0 -224 -182q-20 -70 -92 -70q-23 0 -42 19.5t-19 48.5q0 92 194 213q57 35 107.5 54.5t91.5 19.5q160 0 207 -140q127 139 305 140q74 0 132.5 -32t99 -87.5t62 -130 t21.5 -162.5q0 -23 -17 -40t-44 -17h-535q-2 -20 -2 -36v-26q0 -358 285 -358q90 0 180 75q59 51 82 52q33 0 33 -29q0 -41 -27 -80q-117 -166 -335 -166q-86 0 -158 34t-122 93.5t-78 141t-28 178.5v24.5t3 24.5q-27 -10 -65 -23.5t-89 -33.5q-92 -35 -137 -92.5 t-45 -131.5q0 -39 29.5 -68.5t66.5 -29.5q25 0 61.5 14.5t70.5 33t58.5 32.5t22.5 14q39 0 39 -26q0 -23 -19 -48q-92 -137 -303 -137q-84 0 -136 52.5t-52 148.5zM750 625h71q111 0 179.5 2t106.5 9t50 22.5t12 39.5q0 35 -13 71t-35.5 63.5t-53.5 45t-66 17.5 q-47 0 -93 -24.5t-80.5 -62.5t-56 -86t-21.5 -97z" />
<glyph unicode="&#xe7;" horiz-adv-x="745" d="M63 385q0 143 32 258t90.5 195t141.5 123t183 43q33 0 64.5 -9.5t56 -26t40 -37t15.5 -44.5q0 -82 -61 -82q-20 0 -40 12t-39.5 25.5t-41 26t-43.5 12.5q-51 0 -95 -34t-76 -91.5t-50.5 -134t-18.5 -162.5q0 -184 60.5 -270.5t171.5 -86.5q47 0 89 24t76 64 q20 23 35 37.5t25 14.5q12 0 19.5 -6.5t7.5 -24.5q0 -23 -15.5 -53.5t-38 -61t-48 -57.5t-48.5 -39q-57 -33 -139 -37l-29 -67q18 6 45 6q172 0 172 -148q0 -55 -21.5 -100t-58.5 -77t-88 -50.5t-108 -18.5q-33 0 -33 25q0 12 19.5 26.5t44 29t46 24.5t25.5 14q41 35 41 90 q0 96 -127 121q-35 6 -35 23q0 12 4 28l31 78q-125 20 -203 133t-78 285z" />
<glyph unicode="&#xe8;" horiz-adv-x="864" d="M55 414q0 129 33 237.5t92.5 186t142.5 122t183 44.5q74 0 132 -32t99 -87.5t62.5 -130t21.5 -162.5q0 -23 -17.5 -40t-41.5 -17h-537q-2 -20 -2 -36v-26q0 -180 72 -275.5t215 -95.5q88 0 178 76q31 27 51.5 45.5t30.5 18.5q33 0 33 -29q0 -41 -27 -80 q-117 -166 -336 -166q-86 0 -157.5 34t-121.5 93.5t-78 141t-28 178.5zM229 625h72q113 0 181.5 2t105.5 10t49 22.5t12 38.5q0 35 -13 70t-35.5 63.5t-53.5 46t-66 17.5q-47 0 -92 -23.5t-80 -62.5t-57.5 -87t-22.5 -97zM324 1669q0 31 47 31q74 0 96 -39q4 -8 15.5 -66.5 t33.5 -173.5q43 -225 43 -245q0 -19 -14 -19q-35 0 -70.5 85t-87.5 224q-33 88 -48 139.5t-15 63.5z" />
<glyph unicode="&#xe9;" horiz-adv-x="864" d="M55 414q0 129 33 237.5t92.5 186t142.5 122t183 44.5q74 0 132 -32t99 -87.5t62.5 -130t21.5 -162.5q0 -23 -17.5 -40t-41.5 -17h-537q-2 -20 -2 -36v-26q0 -180 72 -275.5t215 -95.5q88 0 178 76q31 27 51.5 45.5t30.5 18.5q33 0 33 -29q0 -41 -27 -80 q-117 -166 -336 -166q-86 0 -157.5 34t-121.5 93.5t-78 141t-28 178.5zM229 625h72q113 0 181.5 2t105.5 10t49 22.5t12 38.5q0 35 -13 70t-35.5 63.5t-53.5 46t-66 17.5q-47 0 -92 -23.5t-80 -62.5t-57.5 -87t-22.5 -97zM381 1176q0 20 43 245q23 115 33 173.5t16 66.5 q23 39 96 39q47 0 47 -31q0 -4 -8 -30.5t-22.5 -68.5t-32 -91t-35.5 -97.5t-34.5 -91.5t-26.5 -67q-29 -66 -62 -66q-14 0 -14 19z" />
<glyph unicode="&#xea;" horiz-adv-x="864" d="M55 414q0 129 33 237.5t92.5 186t142.5 122t183 44.5q74 0 132 -32t99 -87.5t62.5 -130t21.5 -162.5q0 -23 -17.5 -40t-41.5 -17h-537q-2 -20 -2 -36v-26q0 -180 72 -275.5t215 -95.5q88 0 178 76q31 27 51.5 45.5t30.5 18.5q33 0 33 -29q0 -41 -27 -80 q-117 -166 -336 -166q-86 0 -157.5 34t-121.5 93.5t-78 141t-28 178.5zM184 1186q0 2 31 74l145 321q37 84 88 84t88 -84l141 -321q27 -59 27 -76q0 -25 -18 -25q-27 0 -45 35l-189 348l-209 -356q-14 -27 -37 -27t-22 27zM229 625h72q113 0 181.5 2t105.5 10t49 22.5 t12 38.5q0 35 -13 70t-35.5 63.5t-53.5 46t-66 17.5q-47 0 -92 -23.5t-80 -62.5t-57.5 -87t-22.5 -97z" />
<glyph unicode="&#xeb;" horiz-adv-x="864" d="M55 414q0 129 33 237.5t92.5 186t142.5 122t183 44.5q74 0 132 -32t99 -87.5t62.5 -130t21.5 -162.5q0 -23 -17.5 -40t-41.5 -17h-537q-2 -20 -2 -36v-26q0 -180 72 -275.5t215 -95.5q88 0 178 76q31 27 51.5 45.5t30.5 18.5q33 0 33 -29q0 -41 -27 -80 q-117 -166 -336 -166q-86 0 -157.5 34t-121.5 93.5t-78 141t-28 178.5zM174 1245q0 47 29 82t76 35q80 0 80 -92q0 -111 -109 -111q-76 0 -76 86zM229 625h72q113 0 181.5 2t105.5 10t49 22.5t12 38.5q0 35 -13 70t-35.5 63.5t-53.5 46t-66 17.5q-47 0 -92 -23.5t-80 -62.5 t-57.5 -87t-22.5 -97zM553 1245q0 47 29 82t76 35q80 0 80 -92q0 -111 -109 -111q-76 0 -76 86z" />
<glyph unicode="&#xec;" horiz-adv-x="532" d="M27 49q0 33 36 33h66q66 0 70 43q4 90 7 154.5t3 105.5v395q0 94 -47 94h-88q-47 0 -47 60q0 39 36 39h130q33 0 60.5 7t48 16.5t32.5 17.5t16 8q33 0 33 -37q0 -10 -6 -47l-12 -59q-4 -16 -4.5 -96.5t-0.5 -227.5v-350q0 -59 20.5 -91t61.5 -32h43q35 0 35 -29 q0 -53 -45 -53h-401q-47 0 -47 49zM78 1669q0 31 47 31q74 0 96 -39q4 -8 15.5 -66.5t33.5 -173.5q43 -225 43 -245q0 -19 -14 -19q-35 0 -70.5 85t-87.5 224q-33 88 -48 139.5t-15 63.5z" />
<glyph unicode="&#xed;" horiz-adv-x="532" d="M27 49q0 33 36 33h66q66 0 70 43q4 90 7 154.5t3 105.5v395q0 94 -47 94h-88q-47 0 -47 60q0 39 36 39h130q33 0 60.5 7t48 16.5t32.5 17.5t16 8q33 0 33 -37q0 -10 -6 -47l-12 -59q-4 -16 -4.5 -96.5t-0.5 -227.5v-350q0 -59 20.5 -91t61.5 -32h43q35 0 35 -29 q0 -53 -45 -53h-401q-47 0 -47 49zM172 1176q0 20 43 245q23 115 33 173.5t16 66.5q23 39 96 39q47 0 47 -31q0 -4 -8 -30.5t-22.5 -68.5t-32 -91t-35.5 -97.5t-34.5 -91.5t-26.5 -67q-29 -66 -62 -66q-14 0 -14 19z" />
<glyph unicode="&#xee;" horiz-adv-x="532" d="M4 1186q0 2 31 74l145 321q37 84 88 84t88 -84l141 -321q27 -59 27 -76q0 -25 -18 -25q-27 0 -45 35l-189 348l-209 -356q-14 -27 -37 -27t-22 27zM27 49q0 33 36 33h66q66 0 70 43q4 90 7 154.5t3 105.5v395q0 94 -47 94h-88q-47 0 -47 60q0 39 36 39h130q33 0 60.5 7 t48 16.5t32.5 17.5t16 8q33 0 33 -37q0 -10 -6 -47l-12 -59q-4 -16 -4.5 -96.5t-0.5 -227.5v-350q0 -59 20.5 -91t61.5 -32h43q35 0 35 -29q0 -53 -45 -53h-401q-47 0 -47 49z" />
<glyph unicode="&#xef;" horiz-adv-x="532" d="M-17 1245q0 47 29 82t76 35q80 0 80 -92q0 -111 -109 -111q-76 0 -76 86zM27 49q0 33 36 33h66q66 0 70 43q4 90 7 154.5t3 105.5v395q0 94 -47 94h-88q-47 0 -47 60q0 39 36 39h130q33 0 60.5 7t48 16.5t32.5 17.5t16 8q33 0 33 -37q0 -10 -6 -47l-12 -59 q-4 -16 -4.5 -96.5t-0.5 -227.5v-350q0 -59 20.5 -91t61.5 -32h43q35 0 35 -29q0 -53 -45 -53h-401q-47 0 -47 49zM362 1245q0 47 29 82t76 35q80 0 80 -92q0 -111 -109 -111q-76 0 -76 86z" />
<glyph unicode="&#xf0;" horiz-adv-x="972" d="M66 403q0 145 34.5 257t98 189t154.5 116t204 39q-23 47 -56.5 94t-80.5 96q-37 -25 -72 -47.5t-63.5 -37.5t-48 -24.5t-25.5 -9.5q-41 0 -41 35q0 16 3 25.5t20.5 21.5l52.5 36t100 67q-29 29 -55.5 51t-48.5 39q-31 23 -55.5 37t-41 23t-24.5 17.5t-8 18.5q0 47 53 47 q49 0 96 -31q29 -16 180 -137q57 41 90 64.5t50.5 36t24.5 15.5t16 3q61 0 61 -45q0 -14 -11 -25.5t-32 -25.5l-123 -86q389 -346 389 -697q0 -135 -31.5 -244.5t-92 -188.5t-146.5 -122t-195 -43q-84 0 -153.5 34t-118.5 92.5t-76.5 138t-27.5 171.5zM227 551 q1 -451 277 -451q55 0 99 29t75 77t48 109.5t17 128.5q0 205 -70.5 326t-201.5 121q-51 0 -96 -26.5t-78 -73t-51.5 -107.5t-18.5 -133z" />
<glyph unicode="&#xf1;" horiz-adv-x="1101" d="M37 49q0 33 37 33h65q63 0 68 43q2 18 3 53t3 74t3 76t1 57v389q0 106 -76 107h-59q-45 0 -45 57q0 35 37 35h114q53 0 94.5 17.5t51.5 17.5q35 0 35 -47v-195q213 238 346 238q225 0 225 -338v-461q0 -47 25.5 -85t60.5 -38h43q37 0 37 -25q0 -57 -47 -57h-379 q-37 0 -37 49q0 33 37 33h43q45 0 56.5 24.5t11.5 69.5v418q0 141 -35 191.5t-115 50.5q-18 0 -37.5 -2.5t-43 -13.5t-54.5 -34.5t-76 -66.5l-61 -57v-457q0 -59 20.5 -91t61.5 -32h43q37 0 36 -25q0 -57 -47 -57h-409q-37 0 -37 49zM159 1194q0 14 20.5 41t46.5 55.5 t51.5 52t35.5 33.5q23 23 55.5 36t61.5 13q39 0 82 -19.5t86 -44t83 -44t72 -19.5q66 0 133 91q23 29 45 28q16 0 27.5 -10t11.5 -23q0 -12 -10 -28q-33 -57 -58.5 -95t-50 -60.5t-52 -32t-60.5 -9.5q-37 0 -73 20.5t-75.5 45t-85 45t-98.5 20.5q-29 0 -53.5 -6t-44.5 -27 l-51 -53q-23 -23 -40.5 -33t-27.5 -10q-31 0 -31 33z" />
<glyph unicode="&#xf2;" horiz-adv-x="985" d="M72 403q0 135 32.5 246t93 190t146.5 122t195 43q178 0 269 -114t91 -325q0 -137 -30.5 -247.5t-89 -188.5t-140.5 -120t-186 -42q-86 0 -157 34t-121 93.5t-76.5 138t-26.5 170.5zM223 561q0 -467 291 -467q53 0 96 29t74 77t48.5 111.5t17.5 132.5q0 453 -271 453 q-55 0 -101 -25.5t-81 -69.5t-54.5 -105.5t-19.5 -135.5zM324 1669q0 31 47 31q74 0 96 -39q4 -8 15.5 -66.5t33.5 -173.5q43 -225 43 -245q0 -19 -14 -19q-35 0 -70.5 85t-87.5 224q-33 88 -48 139.5t-15 63.5z" />
<glyph unicode="&#xf3;" horiz-adv-x="985" d="M72 403q0 135 32.5 246t93 190t146.5 122t195 43q178 0 269 -114t91 -325q0 -137 -30.5 -247.5t-89 -188.5t-140.5 -120t-186 -42q-86 0 -157 34t-121 93.5t-76.5 138t-26.5 170.5zM223 561q0 -467 291 -467q53 0 96 29t74 77t48.5 111.5t17.5 132.5q0 453 -271 453 q-55 0 -101 -25.5t-81 -69.5t-54.5 -105.5t-19.5 -135.5zM418 1176q0 20 43 245q23 115 33 173.5t16 66.5q23 39 96 39q47 0 47 -31q0 -4 -8 -30.5t-22.5 -68.5t-32 -91t-35.5 -97.5t-34.5 -91.5t-26.5 -67q-29 -66 -62 -66q-14 0 -14 19z" />
<glyph unicode="&#xf4;" horiz-adv-x="985" d="M72 403q0 135 32.5 246t93 190t146.5 122t195 43q178 0 269 -114t91 -325q0 -137 -30.5 -247.5t-89 -188.5t-140.5 -120t-186 -42q-86 0 -157 34t-121 93.5t-76.5 138t-26.5 170.5zM223 561q0 -467 291 -467q53 0 96 29t74 77t48.5 111.5t17.5 132.5q0 453 -271 453 q-55 0 -101 -25.5t-81 -69.5t-54.5 -105.5t-19.5 -135.5zM234 1186q0 2 31 74l145 321q37 84 88 84t88 -84l141 -321q27 -59 27 -76q0 -25 -18 -25q-27 0 -45 35l-189 348l-209 -356q-14 -27 -37 -27t-22 27z" />
<glyph unicode="&#xf5;" horiz-adv-x="985" d="M72 403q0 135 32.5 246t93 190t146.5 122t195 43q178 0 269 -114t91 -325q0 -137 -30.5 -247.5t-89 -188.5t-140.5 -120t-186 -42q-86 0 -157 34t-121 93.5t-76.5 138t-26.5 170.5zM150 1192q0 14 18.5 42t42 55.5t45 50t25.5 26.5q45 43 94 43q31 0 67 -18.5t70.5 -41 t67.5 -41t59 -18.5q53 0 109 84q20 27 37 27q14 0 23.5 -10.5t9.5 -20.5q0 -12 -9 -27q-25 -53 -46 -87.5t-42.5 -56t-44 -31t-49.5 -9.5q-45 0 -153 78q-63 45 -123 45q-23 0 -44.5 -7t-33.5 -24l-43 -49q-35 -41 -55 -41q-25 0 -25 31zM223 561q0 -467 291 -467 q53 0 96 29t74 77t48.5 111.5t17.5 132.5q0 453 -271 453q-55 0 -101 -25.5t-81 -69.5t-54.5 -105.5t-19.5 -135.5z" />
<glyph unicode="&#xf6;" horiz-adv-x="985" d="M72 403q0 135 32.5 246t93 190t146.5 122t195 43q178 0 269 -114t91 -325q0 -137 -30.5 -247.5t-89 -188.5t-140.5 -120t-186 -42q-86 0 -157 34t-121 93.5t-76.5 138t-26.5 170.5zM213 1245q0 47 29 82t76 35q80 0 80 -92q0 -111 -109 -111q-76 0 -76 86zM223 561 q0 -467 291 -467q53 0 96 29t74 77t48.5 111.5t17.5 132.5q0 453 -271 453q-55 0 -101 -25.5t-81 -69.5t-54.5 -105.5t-19.5 -135.5zM592 1245q0 47 29 82t76 35q80 0 80 -92q0 -111 -109 -111q-76 0 -76 86z" />
<glyph unicode="&#xf7;" d="M119 453v98h776v-98h-776zM406 190q0 57 34.5 96.5t85.5 39.5q94 0 95 -107q0 -57 -35 -93t-92 -36q-88 0 -88 100zM406 801q0 57 34.5 96t85.5 39q94 0 95 -107q0 -57 -35 -93t-92 -36q-88 0 -88 101z" />
<glyph unicode="&#xf8;" horiz-adv-x="972" d="M70 -4q0 6 5 14t15 23l64 88q-82 117 -82 282q0 135 32.5 246t93 190t146.5 122t195 43q125 0 209 -60l30 41q10 14 26.5 24.5t41.5 10.5q27 0 39 -10.5t12 -24.5q0 -10 -8 -20l-68 -95q78 -113 78 -305q0 -137 -30.5 -247.5t-89 -188.5t-140.5 -120t-186 -42 q-133 0 -230 78l-39 -55q-6 -10 -20 -18.5t-31 -8.5q-33 0 -48 11.5t-15 21.5zM223 561q0 -174 41 -287l393 543q-68 80 -178 80q-55 0 -101 -25.5t-81 -69.5t-54.5 -105.5t-19.5 -135.5zM319 176q70 -82 195 -82q53 0 96 29t74 77t48.5 111.5t17.5 132.5q0 172 -39 275z " />
<glyph unicode="&#xf9;" horiz-adv-x="1110" d="M29 938q0 35 37 35h116q20 0 44 5t43.5 12t34.5 12.5t22 5.5q37 0 36 -47v-590q0 -72 7.5 -118t24 -74.5t42 -40t64.5 -11.5q139 0 280 176v485q0 92 -55 93h-80q-45 0 -45 57q0 35 37 35h117q18 0 41.5 5t44 12t37 12.5t20.5 5.5q37 0 37 -47v-795q0 -84 47 -84h53 q25 0 31 -3t6 -26q0 -53 -37 -53h-73q-53 0 -92.5 -9t-51.5 -9q-37 0 -37 47v170q-25 -25 -59.5 -65t-75.5 -78t-88 -66.5t-96 -28.5q-252 0 -252 330v493q0 96 -66 97h-69q-45 0 -45 57zM383 1669q0 31 47 31q74 0 96 -39q4 -8 15.5 -66.5t33.5 -173.5q43 -225 43 -245 q0 -19 -14 -19q-35 0 -70.5 85t-87.5 224q-33 88 -48 139.5t-15 63.5z" />
<glyph unicode="&#xfa;" horiz-adv-x="1110" d="M29 938q0 35 37 35h116q20 0 44 5t43.5 12t34.5 12.5t22 5.5q37 0 36 -47v-590q0 -72 7.5 -118t24 -74.5t42 -40t64.5 -11.5q139 0 280 176v485q0 92 -55 93h-80q-45 0 -45 57q0 35 37 35h117q18 0 41.5 5t44 12t37 12.5t20.5 5.5q37 0 37 -47v-795q0 -84 47 -84h53 q25 0 31 -3t6 -26q0 -53 -37 -53h-73q-53 0 -92.5 -9t-51.5 -9q-37 0 -37 47v170q-25 -25 -59.5 -65t-75.5 -78t-88 -66.5t-96 -28.5q-252 0 -252 330v493q0 96 -66 97h-69q-45 0 -45 57zM467 1176q0 20 43 245q23 115 33 173.5t16 66.5q23 39 96 39q47 0 47 -31 q0 -4 -8 -30.5t-22.5 -68.5t-32 -91t-35.5 -97.5t-34.5 -91.5t-26.5 -67q-29 -66 -62 -66q-14 0 -14 19z" />
<glyph unicode="&#xfb;" horiz-adv-x="1110" d="M29 938q0 35 37 35h116q20 0 44 5t43.5 12t34.5 12.5t22 5.5q37 0 36 -47v-590q0 -72 7.5 -118t24 -74.5t42 -40t64.5 -11.5q139 0 280 176v485q0 92 -55 93h-80q-45 0 -45 57q0 35 37 35h117q18 0 41.5 5t44 12t37 12.5t20.5 5.5q37 0 37 -47v-795q0 -84 47 -84h53 q25 0 31 -3t6 -26q0 -53 -37 -53h-73q-53 0 -92.5 -9t-51.5 -9q-37 0 -37 47v170q-25 -25 -59.5 -65t-75.5 -78t-88 -66.5t-96 -28.5q-252 0 -252 330v493q0 96 -66 97h-69q-45 0 -45 57zM250 1186q0 2 31 74l145 321q37 84 88 84t88 -84l141 -321q27 -59 27 -76 q0 -25 -18 -25q-27 0 -45 35l-189 348l-209 -356q-14 -27 -37 -27t-22 27z" />
<glyph unicode="&#xfc;" horiz-adv-x="1110" d="M29 938q0 35 37 35h116q20 0 44 5t43.5 12t34.5 12.5t22 5.5q37 0 36 -47v-590q0 -72 7.5 -118t24 -74.5t42 -40t64.5 -11.5q139 0 280 176v485q0 92 -55 93h-80q-45 0 -45 57q0 35 37 35h117q18 0 41.5 5t44 12t37 12.5t20.5 5.5q37 0 37 -47v-795q0 -84 47 -84h53 q25 0 31 -3t6 -26q0 -53 -37 -53h-73q-53 0 -92.5 -9t-51.5 -9q-37 0 -37 47v170q-25 -25 -59.5 -65t-75.5 -78t-88 -66.5t-96 -28.5q-252 0 -252 330v493q0 96 -66 97h-69q-45 0 -45 57zM270 1245q0 47 29 82t76 35q80 0 80 -92q0 -111 -109 -111q-76 0 -76 86zM649 1245 q0 47 29 82t76 35q80 0 80 -92q0 -111 -109 -111q-76 0 -76 86z" />
<glyph unicode="&#xfd;" horiz-adv-x="1179" d="M43 934q0 39 51 39h357q45 0 45 -33q0 -29 -14.5 -40t-30.5 -17q-18 -6 -34 -12.5t-16 -24.5q0 -6 2.5 -12.5t8.5 -26t19 -59t35.5 -113.5t57.5 -187.5t84 -281.5l209 577q16 43 24.5 69t8.5 34q0 23 -22.5 28t-49.5 9q-25 4 -45 14t-20 39q0 37 45 37h336q49 0 49 -39 q0 -25 -21.5 -29t-52.5 -14q-29 -10 -61.5 -35t-55.5 -88l-290 -788q-14 -35 -36 -122t-57 -229q-10 -39 -16 -61.5t-19.5 -37.5t-38 -25.5t-69.5 -22.5q-41 -12 -69.5 -17.5t-51.5 -5.5q-51 0 -51 35q0 14 37 45t84 90q23 31 46 69t40 87l69 199l-286 815q-31 86 -105 86 h-57q-39 0 -39 49zM588 1176q0 20 43 245q23 115 33 173.5t16 66.5q23 39 96 39q47 0 47 -31q0 -4 -8 -30.5t-22.5 -68.5t-32 -91t-35.5 -97.5t-34.5 -91.5t-26.5 -67q-29 -66 -62 -66q-14 0 -14 19z" />
<glyph unicode="&#xfe;" horiz-adv-x="1026" d="M35 1507q0 37 39 37h125q18 0 41.5 6t46 12.5t42 12.5t27.5 6q23 0 35 -11t12 -42q0 -12 -3 -33.5t-6 -61.5t-6 -100.5t-3 -150.5v-322q35 59 102.5 101.5t141.5 42.5q172 0 261 -104.5t89 -291.5q0 -145 -29.5 -262t-88 -200t-142.5 -127t-193 -44q-18 0 -39.5 7.5 t-39 18.5t-29.5 25.5t-12 30.5q0 35 13 71t36 36q4 0 19 -10.5t36.5 -21.5t44.5 -21.5t41 -10.5q100 0 157.5 126t57.5 343q0 322 -182 322q-117 0 -183.5 -118t-66.5 -329v-727q0 -61 30.5 -92t94.5 -41l39 -6q51 -8 75.5 -9t24.5 -26q0 -47 -33 -47h-526q-35 0 -35 47 q0 18 28.5 23.5t63.5 11.5q27 4 47.5 13.5t24.5 27.5q14 63 14 240v440q0 186 -2 363.5t-3 322.5t-3 248.5t-2 140.5q0 45 -16.5 58.5t-73.5 13.5h-43q-49 0 -49 61z" />
<glyph unicode="&#xff;" horiz-adv-x="1179" d="M43 934q0 39 51 39h357q45 0 45 -33q0 -29 -14.5 -40t-30.5 -17q-18 -6 -34 -12.5t-16 -24.5q0 -6 2.5 -12.5t8.5 -26t19 -59t35.5 -113.5t57.5 -187.5t84 -281.5l209 577q16 43 24.5 69t8.5 34q0 23 -22.5 28t-49.5 9q-25 4 -45 14t-20 39q0 37 45 37h336q49 0 49 -39 q0 -25 -21.5 -29t-52.5 -14q-29 -10 -61.5 -35t-55.5 -88l-290 -788q-14 -35 -36 -122t-57 -229q-10 -39 -16 -61.5t-19.5 -37.5t-38 -25.5t-69.5 -22.5q-41 -12 -69.5 -17.5t-51.5 -5.5q-51 0 -51 35q0 14 37 45t84 90q23 31 46 69t40 87l69 199l-286 815q-31 86 -105 86 h-57q-39 0 -39 49zM329 1245q0 47 29 82t76 35q80 0 80 -92q0 -111 -109 -111q-76 0 -76 86zM708 1245q0 47 29 82t76 35q80 0 80 -92q0 -111 -109 -111q-76 0 -76 86z" />
<glyph unicode="&#x152;" horiz-adv-x="2060" d="M102 715q0 176 50.5 319.5t144.5 244.5t227 156.5t297 55.5q53 0 106.5 -7t106.5 -20h854q78 0 78 -61v-260q0 -45 -39 -45q-35 0 -47 45q-18 78 -36.5 123t-45 67.5t-67.5 28.5t-105 6h-231q-53 0 -86 -8t-53.5 -28.5t-27.5 -54.5t-7 -85v-379h262q49 0 80.5 3t50 19.5 t30 51.5t21.5 98q6 43 41 43q39 0 39 -43v-481q0 -45 -35 -45q-37 0 -43 45q-25 145 -33 160q-29 43 -151 43h-262v-433q0 -61 15 -98t50 -56.5t91.5 -25.5t135.5 -6q160 0 263.5 40t138.5 130l6 16q23 57 43.5 96.5t44.5 39.5q39 0 39 -37q0 -25 -17.5 -98.5t-50.5 -198.5 q-20 -76 -65 -76h-897q-35 -10 -93.5 -16.5t-144.5 -6.5q-160 0 -285.5 52.5t-212.5 147.5t-133.5 231.5t-46.5 306.5zM332 772q0 -680 475 -680q33 0 72 4t73.5 12.5t60 18.5t31.5 20q4 41 6.5 117t2.5 189v204q0 651 -25 682q-63 33 -192 33q-115 0 -208 -43t-159 -122 t-101.5 -189.5t-35.5 -245.5z" />
<glyph unicode="&#x153;" horiz-adv-x="1542" d="M72 403q0 135 32.5 246t93 190t146.5 122t195 43q221 0 309 -181q127 180 336 181q74 0 132 -32t99 -87.5t62.5 -130t21.5 -162.5q0 -23 -17.5 -40t-41.5 -17h-537q-2 -20 -2 -36v-26q0 -180 71.5 -276.5t215.5 -96.5q88 0 178 76q31 27 51.5 46.5t30.5 19.5q33 0 33 -29 q0 -41 -27 -80q-117 -166 -336 -166q-217 0 -321 187q-59 -92 -145.5 -139.5t-198.5 -47.5q-86 0 -157 34t-121 93.5t-76.5 138t-26.5 170.5zM223 561q0 -467 291 -467q53 0 96 29t74 77t48.5 111.5t17.5 132.5q0 453 -271 453q-55 0 -101 -25.5t-81 -69.5t-54.5 -105.5 t-19.5 -135.5zM907 625h74q113 0 180.5 2t104.5 9t49 22.5t12 39.5q0 35 -13.5 70t-36 63.5t-53 46t-65.5 17.5q-47 0 -92 -23.5t-80 -62.5t-57.5 -87t-22.5 -97z" />
<glyph unicode="&#x178;" horiz-adv-x="1406" d="M6 1430q0 35 53 34h416q55 0 55 -30q0 -18 -9 -28.5t-21.5 -16t-26.5 -8.5t-27 -5q-23 -4 -34 -16t-11 -23q0 -18 9.5 -37.5t17.5 -35.5q2 -6 12.5 -25.5t40 -77t86 -163t152.5 -281.5l297 520q43 74 43 92q0 27 -29 36t-62.5 14t-61 13.5t-27.5 32.5q0 20 12 29.5 t53 9.5h412q23 0 34 -7t11 -30q0 -14 -10.5 -22t-25.5 -13.5t-32.5 -9.5t-29.5 -8q-29 -10 -61 -19t-44 -38q-6 -10 -20.5 -30.5t-30.5 -49.5l-381 -645v-250q0 -53 1 -97t9 -77t25.5 -51.5t48.5 -18.5q59 0 95 -9t36 -34q0 -55 -53 -55h-473q-59 0 -60 51q0 29 23.5 32 t56.5 5q18 0 39 3t37 14.5t27.5 32t13.5 57.5q2 41 3 69.5t1 44.5v283l-356 649q-31 57 -49.5 84t-37 38t-42 12t-66.5 7q-39 6 -39 48zM422 1696q0 47 29 82t76 35q80 0 80 -92q0 -111 -109 -111q-76 0 -76 86zM801 1696q0 47 29 82t76 35q80 0 80 -92q0 -111 -109 -111 q-76 0 -76 86z" />
<glyph unicode="&#x2c6;" horiz-adv-x="1024" d="M250 1186q0 2 31 74l145 321q37 84 88 84t88 -84l141 -321q27 -59 27 -76q0 -25 -18 -25q-27 0 -45 35l-189 348l-209 -356q-14 -27 -37 -27t-22 27z" />
<glyph unicode="&#x2dc;" horiz-adv-x="1024" d="M213 1192q0 14 18.5 42t42 55.5t45 50t25.5 26.5q45 43 94 43q31 0 67 -18.5t70.5 -41t67.5 -41t59 -18.5q53 0 109 84q20 27 37 27q14 0 23.5 -10.5t9.5 -20.5q0 -12 -9 -27q-25 -53 -46 -87.5t-42.5 -56t-44 -31t-49.5 -9.5q-45 0 -153 78q-63 45 -123 45 q-23 0 -44.5 -7t-33.5 -24l-43 -49q-35 -41 -55 -41q-25 0 -25 31z" />
<glyph unicode="&#x2000;" horiz-adv-x="1044" />
<glyph unicode="&#x2001;" horiz-adv-x="2089" />
<glyph unicode="&#x2002;" horiz-adv-x="1044" />
<glyph unicode="&#x2003;" horiz-adv-x="2089" />
<glyph unicode="&#x2004;" horiz-adv-x="696" />
<glyph unicode="&#x2005;" horiz-adv-x="522" />
<glyph unicode="&#x2006;" horiz-adv-x="348" />
<glyph unicode="&#x2007;" horiz-adv-x="348" />
<glyph unicode="&#x2008;" horiz-adv-x="261" />
<glyph unicode="&#x2009;" horiz-adv-x="417" />
<glyph unicode="&#x200a;" horiz-adv-x="116" />
<glyph unicode="&#x2010;" horiz-adv-x="751" d="M102 492q0 98 86 114l398 66q6 2 20 2q51 0 51 -49q0 -92 -59 -101l-426 -69q-6 -2 -22 -2q-47 0 -48 39z" />
<glyph unicode="&#x2011;" horiz-adv-x="751" d="M102 492q0 98 86 114l398 66q6 2 20 2q51 0 51 -49q0 -92 -59 -101l-426 -69q-6 -2 -22 -2q-47 0 -48 39z" />
<glyph unicode="&#x2012;" horiz-adv-x="751" d="M102 492q0 98 86 114l398 66q6 2 20 2q51 0 51 -49q0 -92 -59 -101l-426 -69q-6 -2 -22 -2q-47 0 -48 39z" />
<glyph unicode="&#x2013;" horiz-adv-x="1024" d="M-4 502v147h1034v-147h-1034z" />
<glyph unicode="&#x2014;" horiz-adv-x="2048" d="M-4 502v147h2060v-147h-2060z" />
<glyph unicode="&#x2018;" horiz-adv-x="622" d="M143 1229q0 57 12.5 104t42 91t80 87t123.5 93q45 29 68 28q12 0 21.5 -17.5t9.5 -27.5q0 -4 -23.5 -23.5t-53.5 -43t-58.5 -46t-38.5 -32.5q-59 -61 -60 -119q0 -12 3 -23.5t13.5 -21.5t30 -22.5t52.5 -28.5q53 -29 53 -78q0 -111 -119 -111q-156 0 -156 191z" />
<glyph unicode="&#x2019;" horiz-adv-x="622" d="M164 1034q0 20 39 53q162 139 162 216q0 49 -28 70.5t-59.5 33.5t-59.5 27.5t-28 56.5q0 115 142 115q68 0 105.5 -62.5t37.5 -148.5q0 -51 -8 -92t-31.5 -81t-64.5 -85t-109 -105q-45 -39 -63 -39q-10 0 -22.5 15.5t-12.5 25.5z" />
<glyph unicode="&#x201a;" horiz-adv-x="622" d="M164 -324q0 20 39 53q162 139 162 216q0 49 -28 70.5t-59.5 33.5t-59.5 27.5t-28 56.5q0 115 142 115q68 0 105.5 -62.5t37.5 -148.5q0 -51 -8 -92t-31.5 -81t-64.5 -85t-109 -105q-45 -39 -63 -39q-10 0 -22.5 15.5t-12.5 25.5z" />
<glyph unicode="&#x201c;" horiz-adv-x="1095" d="M143 1229q0 57 12.5 104t42 91t80 87t123.5 93q45 29 68 28q12 0 21.5 -17.5t9.5 -27.5q0 -4 -23.5 -23.5t-53.5 -43t-58.5 -46t-38.5 -32.5q-59 -61 -60 -119q0 -12 3 -23.5t13.5 -21.5t30 -22.5t52.5 -28.5q53 -29 53 -78q0 -111 -119 -111q-156 0 -156 191zM583 1229 q0 57 12.5 104t42 91t80 87t123.5 93q45 29 68 28q12 0 21.5 -17.5t9.5 -27.5q0 -4 -23.5 -23.5t-53.5 -43t-58.5 -46t-38.5 -32.5q-59 -61 -60 -119q0 -12 3 -23.5t13.5 -21.5t30 -22.5t52.5 -28.5q53 -29 53 -78q0 -111 -119 -111q-156 0 -156 191z" />
<glyph unicode="&#x201d;" horiz-adv-x="1095" d="M164 1034q0 20 39 53q162 139 162 216q0 49 -28 70.5t-59.5 33.5t-59.5 27.5t-28 56.5q0 115 142 115q68 0 105.5 -62.5t37.5 -148.5q0 -51 -8 -92t-31.5 -81t-64.5 -85t-109 -105q-45 -39 -63 -39q-10 0 -22.5 15.5t-12.5 25.5zM604 1034q0 20 39 53q162 139 162 216 q0 49 -28 70.5t-59.5 33.5t-59.5 27.5t-28 56.5q0 115 142 115q68 0 105.5 -62.5t37.5 -148.5q0 -51 -8 -92t-31.5 -81t-64.5 -85t-109 -105q-45 -39 -63 -39q-10 0 -22.5 15.5t-12.5 25.5z" />
<glyph unicode="&#x201e;" horiz-adv-x="1095" d="M164 -324q0 20 39 53q162 139 162 216q0 49 -28 70.5t-59.5 33.5t-59.5 27.5t-28 56.5q0 115 142 115q68 0 105.5 -62.5t37.5 -148.5q0 -51 -8 -92t-31.5 -81t-64.5 -85t-109 -105q-45 -39 -63 -39q-10 0 -22.5 15.5t-12.5 25.5zM604 -324q0 20 39 53q162 139 162 216 q0 49 -28 70.5t-59.5 33.5t-59.5 27.5t-28 56.5q0 115 142 115q68 0 105.5 -62.5t37.5 -148.5q0 -51 -8 -92t-31.5 -81t-64.5 -85t-109 -105q-45 -39 -63 -39q-10 0 -22.5 15.5t-12.5 25.5z" />
<glyph unicode="&#x2022;" horiz-adv-x="1024" d="M248 535q0 57 22.5 108t61.5 90t90 60.5t110 21.5q57 0 109.5 -22.5t91.5 -61.5t61.5 -89t22.5 -107t-22.5 -108.5t-60.5 -89.5t-90 -60.5t-112 -22.5q-59 0 -110 22.5t-90 60.5t-61.5 89.5t-22.5 108.5z" />
<glyph unicode="&#x2026;" horiz-adv-x="2048" d="M221 92q0 63 38 107.5t97 44.5q106 0 107 -119q0 -66 -39 -105.5t-105 -39.5q-45 0 -71.5 31.5t-26.5 80.5zM903 92q0 59 38 105.5t99 46.5q104 0 105 -119q0 -66 -39 -105.5t-102 -39.5q-45 0 -73 32.5t-28 79.5zM1587 92q0 63 38 107.5t97 44.5q106 0 107 -119 q0 -66 -38.5 -105.5t-104.5 -39.5q-45 0 -72 31.5t-27 80.5z" />
<glyph unicode="&#x202f;" horiz-adv-x="417" />
<glyph unicode="&#x2039;" horiz-adv-x="784" d="M188 506q0 80 105 170q8 8 51 37.5t121 83.5q55 37 78 37q35 0 35 -37q0 -10 -105 -121q-104 -111 -104 -164q0 -59 86 -154l112 -127q4 -4 10.5 -13t6.5 -17q0 -12 -9.5 -21.5t-19.5 -9.5q-31 0 -94 45l-172 121q-53 39 -77 83t-24 87z" />
<glyph unicode="&#x203a;" horiz-adv-x="784" d="M215 203v14l127 141q86 94 86 154q0 53 -104 164t-105 121q0 37 35 37q25 0 78 -37q78 -53 120 -83t52 -38q104 -90 104 -170q0 -43 -23.5 -87t-76.5 -83l-172 -121q-63 -45 -94 -45q-16 0 -21.5 8t-5.5 25z" />
<glyph unicode="&#x205f;" horiz-adv-x="522" />
<glyph unicode="&#x20ac;" horiz-adv-x="1128" d="M43 549q0 18 9 31.5t30 13.5h113q0 16 -1 32.5t-1 32.5v23.5t2 24.5h-101q-51 0 -51 63q0 18 9 35.5t30 17.5h121q14 121 60 217.5t118 164t166 103t209 35.5q37 0 84 -7t84 -7q20 0 39.5 16.5t31.5 16.5q23 0 36 -43t24 -92q8 -41 12 -77t4 -44q0 -18 -10 -30.5 t-27 -12.5q-10 0 -20 14.5t-24.5 36t-32 44t-39.5 38.5q-66 45 -183 45q-139 0 -238.5 -109.5t-121.5 -308.5h528q23 0 33 -18.5t10 -40.5q0 -23 -15.5 -40t-35.5 -17h-524v-58.5t4 -54.5h438q23 0 33 -14.5t10 -36.5q0 -20 -15.5 -43t-35.5 -23h-416q41 -193 151.5 -277.5 t295.5 -84.5q37 0 70.5 11t63 23.5t53.5 23.5t36 11q47 0 47 -30q0 -33 -32 -63t-85 -53.5t-120.5 -36.5t-141.5 -13q-98 0 -185 34.5t-156 98t-115 155t-64 201.5h-113q-25 0 -38 21.5t-13 50.5z" />
<glyph unicode="&#x2122;" horiz-adv-x="1662" d="M90 1303v139q0 23 29 22h512q29 0 28 -22v-139q0 -16 -22 -17q-10 0 -16.5 19.5t-15.5 42t-26.5 42t-48.5 19.5h-67q-14 0 -22.5 -3t-11.5 -17.5t-4 -43t-1 -79.5v-238q0 -35 4 -48t25 -22h12t20 -2q12 -2 22.5 -8t10.5 -16q0 -31 -24 -31h-232q-23 0 -22 33q0 20 16 20 q25 0 40 1t23.5 8.5t10.5 22.5t2 42v275q0 43 -6.5 74.5t-34.5 31.5h-55q-43 0 -63.5 -20.5t-41.5 -85.5q-6 -16 -18 -17q-23 0 -23 17zM700 932q0 10 9.5 14t23.5 8q25 0 40 16.5t18 35.5l30 337q2 10 2 18.5v16.5q0 18 -13 24.5t-30 10.5q-16 4 -31.5 9t-15.5 22 q0 23 27 22h74q12 0 33.5 3.5t31.5 3.5q18 0 39 -58l131 -371l150 379q18 49 43 50q14 0 29.5 -3.5t25.5 -3.5h84q23 0 22 -20q0 -20 -14 -25.5t-31 -9.5q-18 -4 -33.5 -9t-15.5 -26q0 -14 1 -42.5t3 -43.5l19 -284q2 -23 18 -32t37 -16q12 0 25.5 -8t13.5 -18 q0 -29 -33 -29h-203q-25 0 -24 29q0 12 12 16t27 8q16 4 28.5 12.5t12.5 30.5v13.5t-2 17.5l-23 279l-158 -383q-12 -35 -26 -35t-22.5 12t-12.5 23l-137 377l-27 -277q0 -6 -1 -11t-1 -9q0 -25 9 -38.5t36 -13.5h23q20 0 20 -20q0 -31 -31 -31h-188q-25 0 -25 29z" />
<glyph unicode="&#x25fc;" horiz-adv-x="972" d="M0 0v973h973v-973h-973z" />
</font>
</defs>
</svg>
